<svg width="218" height="116" viewBox="0 0 218 116" fill="none" xmlns="http://www.w3.org/2000/svg">
<path d="M194.069 71.0975C193.863 48.0624 194.612 21.5586 195.22 11.6619H179.43C179.826 29.8284 180.047 49.717 180.265 70.8857L194.069 71.0944V71.0975Z" fill="#CCB193"/>
<path d="M194.654 23.0167L179.646 23.0259L179.625 22.5593L194.654 23.0167Z" fill="#211E1B"/>
<path d="M195.153 12.7945L179 12.9388L178.914 12.285L195.153 12.7945Z" fill="#211E1B"/>
<path d="M195.738 11.1277L195.628 12.592C195.619 12.7056 195.523 12.7915 195.413 12.7885L178.84 12.4846C178.723 12.4846 178.631 12.3894 178.631 12.2727V11.3027C178.631 11.1861 178.723 11.0909 178.84 11.0909L195.523 10.8975C195.649 10.8975 195.748 11.0019 195.738 11.1247V11.1277Z" fill="#6B5546"/>
<path d="M195.239 21.4542L195.15 22.7281C195.137 22.8939 194.996 23.0228 194.83 23.0197L179.436 22.7189C179.264 22.7159 179.129 22.5746 179.129 22.4058V21.623C179.129 21.4573 179.258 21.3191 179.424 21.3099C184.642 20.9968 189.811 20.9354 194.938 21.1165C195.116 21.1227 195.254 21.2762 195.239 21.4542Z" fill="#6B5546"/>
<path d="M194.689 56.2093L194.6 57.7442C194.591 57.91 194.456 58.0389 194.29 58.042C189.192 58.1463 184.305 58.0604 179.715 57.7043C179.55 57.692 179.424 57.5539 179.424 57.3881V56.4027C179.424 56.237 179.553 56.0958 179.719 56.0866C183.884 55.8441 188.925 55.8103 194.376 55.8748C194.557 55.8748 194.699 56.0282 194.689 56.2093Z" fill="#6B5546"/>
<path d="M187.07 0C189.05 1.35988 200.147 3.84941 194.938 10.9067L179.427 10.8975C174.276 4.58614 184.126 1.52871 187.07 0Z" fill="#FFBF3E"/>
<path d="M187.103 0C188.135 1.35988 193.918 3.84941 191.201 10.9067L183.119 10.8975C180.436 4.58614 185.568 1.52871 187.1 0H187.103Z" fill="#FF8A29"/>
<g style="mix-blend-mode:soft-light" opacity="0.8">
<path d="M193.304 4.39275C192.749 3.78188 192.055 3.29994 191.321 2.91929C191.033 2.76888 190.729 2.63381 190.406 2.62153C190.284 2.61846 190.152 2.63688 190.056 2.71669C189.94 2.81799 189.915 2.9991 189.961 3.14645C190.007 3.29379 190.112 3.41658 190.219 3.53016C191.02 4.37126 192.144 4.88697 192.819 5.82937C192.976 6.04732 193.105 6.28369 193.286 6.48322C193.516 6.73186 194.268 7.08488 194.385 6.53233C194.428 6.32359 194.299 6.05345 194.228 5.8662C194.13 5.61142 194.004 5.36585 193.863 5.13255C193.7 4.86855 193.513 4.62298 193.304 4.39275Z" fill="white"/>
</g>
<path d="M193.317 19.3576H190.008L190.312 15.8059C190.382 14.9771 191.091 14.3478 191.923 14.3785C192.783 14.4092 193.452 15.1306 193.424 15.987L193.317 19.3545V19.3576Z" fill="#3F2F25"/>
<path d="M188.669 19.3576H185.359L185.663 15.8059C185.734 14.9771 186.443 14.3478 187.275 14.3785C188.134 14.4092 188.804 15.1306 188.776 15.987L188.669 19.3545V19.3576Z" fill="#3F2F25"/>
<path d="M184.022 19.3576H180.713L181.017 15.8059C181.087 14.9771 181.796 14.3478 182.628 14.3785C183.488 14.4092 184.157 15.1306 184.129 15.987L184.022 19.3545V19.3576Z" fill="#3F2F25"/>
<path d="M188.449 31.1084H185.588L185.852 28.0387C185.913 27.3204 186.527 26.7801 187.246 26.8047C187.988 26.8323 188.569 27.4555 188.544 28.1953L188.449 31.1054V31.1084Z" fill="#3F2F25"/>
<path d="M188.449 41.9506H185.588L185.852 38.8809C185.913 38.1626 186.527 37.6224 187.246 37.6469C187.988 37.6746 188.569 38.2977 188.544 39.0375L188.449 41.9476V41.9506Z" fill="#3F2F25"/>
<path d="M188.449 52.7927H185.588L185.852 49.723C185.913 49.0047 186.527 48.4645 187.246 48.489C187.988 48.5167 188.569 49.1398 188.544 49.8796L188.449 52.7897V52.7927Z" fill="#3F2F25"/>
<path d="M188.981 31.661L189.039 32.1552L185.045 31.9158L185.033 31.5474L188.981 31.661Z" fill="#211E1B"/>
<path d="M189.084 42.5185L189.139 43.0128L185.148 42.7733L185.133 42.405L189.084 42.5185Z" fill="#211E1B"/>
<path d="M189.013 53.3239L189.068 53.8181L185.078 53.5786L185.062 53.2103L189.013 53.3239Z" fill="#211E1B"/>
<g style="mix-blend-mode:soft-light" opacity="0.8">
<path d="M193.103 25.4754C192.989 27.9128 192.873 30.3501 192.759 32.7875C192.747 33.0208 192.735 33.2633 192.618 33.4659C192.501 33.6685 192.249 33.8158 192.032 33.733C191.519 33.5396 191.421 32.8182 191.442 32.2718C191.528 30.0954 191.617 27.9159 191.703 25.7394C191.718 25.3342 191.761 24.8768 192.081 24.6282C192.299 24.4594 192.621 24.4348 192.86 24.576C193.1 24.7142 193.112 25.1992 193.1 25.4754H193.103Z" fill="white"/>
</g>
<path d="M184.426 26.5561C184.488 26.5837 184.445 27.1915 184.387 27.2192C184.328 27.2468 183.048 27.2222 183.002 27.1915C182.956 27.1608 182.95 26.6206 183.057 26.5806C183.165 26.5407 184.371 26.5315 184.426 26.553V26.5561Z" fill="#FFE6C7"/>
<path d="M182.784 26.5561C182.845 26.5837 182.802 27.1915 182.744 27.2192C182.686 27.2468 181.406 27.2222 181.36 27.1915C181.314 27.1608 181.307 26.6206 181.415 26.5806C181.522 26.5407 182.729 26.5315 182.784 26.553V26.5561Z" fill="#FFE6C7"/>
<path d="M183.618 27.3727C183.679 27.4003 183.636 28.0081 183.578 28.0358C183.523 28.0634 182.24 28.0388 182.194 28.0081C182.148 27.9774 182.141 27.4372 182.249 27.3973C182.356 27.3573 183.563 27.3481 183.618 27.3696V27.3727Z" fill="#FFE6C7"/>
<path d="M185.553 45.2199C185.615 45.2475 185.572 45.8553 185.514 45.883C185.458 45.9106 184.175 45.886 184.129 45.8553C184.083 45.8247 184.077 45.2844 184.184 45.2445C184.292 45.2046 185.498 45.1954 185.553 45.2168V45.2199Z" fill="#FFE6C7"/>
<path d="M183.915 45.2199C183.976 45.2475 183.933 45.8553 183.875 45.883C183.817 45.9106 182.536 45.886 182.49 45.8553C182.444 45.8247 182.438 45.2844 182.546 45.2445C182.653 45.2046 183.86 45.1954 183.915 45.2168V45.2199Z" fill="#FFE6C7"/>
<path d="M184.749 46.0365C184.81 46.0641 184.767 46.6719 184.709 46.6996C184.654 46.7272 183.37 46.7026 183.324 46.6719C183.278 46.6412 183.272 46.101 183.38 46.0611C183.487 46.0212 184.694 46.012 184.749 46.0334V46.0365Z" fill="#FFE6C7"/>
<path d="M192.772 52.053C192.834 52.0807 192.791 52.6885 192.732 52.7161C192.674 52.7437 191.394 52.7192 191.348 52.6885C191.302 52.6578 191.296 52.1175 191.403 52.0776C191.511 52.0377 192.717 52.0285 192.772 52.05V52.053Z" fill="#FFE6C7"/>
<path d="M191.967 52.8695C192.029 52.8971 191.986 53.505 191.928 53.5326C191.872 53.5602 190.589 53.5356 190.543 53.5049C190.497 53.4742 190.491 52.934 190.598 52.8941C190.706 52.8542 191.912 52.845 191.967 52.8664V52.8695Z" fill="#FFE6C7"/>
<path d="M191.538 35.2863C191.599 35.314 191.556 35.9217 191.498 35.9494C191.443 35.977 190.16 35.9525 190.113 35.9218C190.067 35.8911 190.061 35.3508 190.169 35.3109C190.276 35.271 191.483 35.2618 191.538 35.2833V35.2863Z" fill="#FFE6C7"/>
<path d="M189.895 35.2863C189.957 35.314 189.914 35.9217 189.855 35.9494C189.797 35.977 188.517 35.9525 188.471 35.9218C188.425 35.8911 188.419 35.3508 188.526 35.3109C188.634 35.271 189.84 35.2618 189.895 35.2833V35.2863Z" fill="#FFE6C7"/>
<path d="M190.731 36.1029C190.793 36.1305 190.75 36.7383 190.691 36.7659C190.636 36.7935 189.353 36.769 189.307 36.7383C189.261 36.7076 189.255 36.1673 189.362 36.1274C189.47 36.0875 190.676 36.0783 190.731 36.0998V36.1029Z" fill="#FFE6C7"/>
<path d="M185.993 59.4849C186.054 59.5125 186.011 60.1203 185.953 60.1479C185.895 60.1756 184.615 60.151 184.569 60.1203C184.523 60.0896 184.516 59.5493 184.624 59.5094C184.731 59.4695 185.938 59.4603 185.993 59.4818V59.4849Z" fill="#FFE6C7"/>
<path d="M184.354 59.4849C184.416 59.5125 184.373 60.1203 184.314 60.1479C184.256 60.1756 182.976 60.151 182.93 60.1203C182.884 60.0896 182.878 59.5493 182.985 59.5094C183.093 59.4695 184.299 59.4603 184.354 59.4818V59.4849Z" fill="#FFE6C7"/>
<path d="M185.188 60.3015C185.25 60.3291 185.207 60.9369 185.148 60.9645C185.09 60.9921 183.81 60.9676 183.764 60.9369C183.718 60.9062 183.712 60.3659 183.819 60.326C183.927 60.2861 185.133 60.2769 185.188 60.2984V60.3015Z" fill="#FFE6C7"/>
<path d="M173.4 69.8789C173.243 52.4798 173.811 32.4592 174.269 24.9845H162.34C162.638 38.7091 162.806 53.7292 162.972 69.7224L173.4 69.882V69.8789Z" fill="#CCB193"/>
<path d="M173.843 33.5613L162.507 33.5705L162.488 33.2175L173.843 33.5613Z" fill="#211E1B"/>
<path d="M174.222 25.8378L162.02 25.9483L161.955 25.4541L174.222 25.8378Z" fill="#211E1B"/>
<path d="M174.666 24.5823L174.583 25.6905C174.577 25.7764 174.506 25.8409 174.42 25.8378L161.899 25.6076C161.813 25.6076 161.742 25.5339 161.742 25.448V24.7174C161.742 24.6283 161.813 24.5577 161.902 24.5577L174.506 24.4104C174.601 24.4104 174.675 24.4902 174.669 24.5823H174.666Z" fill="#6B5546"/>
<path d="M174.283 32.3825L174.215 33.3464C174.206 33.4723 174.102 33.5705 173.973 33.5674L162.345 33.3402C162.216 33.3402 162.111 33.2328 162.111 33.1039V32.5114C162.111 32.3856 162.21 32.2812 162.335 32.2751C166.277 32.0387 170.182 31.9926 174.056 32.1308C174.191 32.1369 174.292 32.2505 174.283 32.3856V32.3825Z" fill="#6B5546"/>
<path d="M173.869 58.6346L173.801 59.7949C173.795 59.9208 173.691 60.0159 173.568 60.019C169.716 60.0988 166.026 60.0313 162.557 59.7642C162.431 59.755 162.336 59.6506 162.336 59.5248V58.7788C162.336 58.653 162.434 58.5486 162.56 58.5394C165.706 58.3552 169.513 58.3307 173.632 58.3798C173.768 58.3798 173.875 58.4964 173.869 58.6315V58.6346Z" fill="#6B5546"/>
<path d="M168.11 16.1745C169.609 17.1998 177.989 19.0815 174.053 24.4136L162.336 24.4074C158.444 19.6402 165.885 17.3287 168.11 16.1745Z" fill="#FFBF3E"/>
<path d="M168.137 16.1745C168.917 17.1998 173.285 19.0815 171.234 24.4136L165.128 24.4074C163.099 19.6402 166.976 17.3287 168.137 16.1745Z" fill="#FF8A29"/>
<g style="mix-blend-mode:soft-light" opacity="0.8">
<path d="M172.82 19.4928C172.4 19.0293 171.878 18.667 171.322 18.3816C171.105 18.268 170.874 18.1636 170.632 18.1575C170.54 18.1544 170.438 18.1667 170.368 18.2281C170.279 18.3048 170.26 18.4399 170.297 18.5535C170.331 18.664 170.411 18.7591 170.491 18.842C171.095 19.4775 171.943 19.8673 172.455 20.5795C172.572 20.7452 172.67 20.9233 172.808 21.0737C172.983 21.2609 173.548 21.528 173.637 21.1105C173.671 20.954 173.573 20.7483 173.517 20.6071C173.444 20.4137 173.348 20.2295 173.241 20.0515C173.118 19.852 172.977 19.6647 172.817 19.4928H172.82Z" fill="white"/>
</g>
<path d="M172.833 30.7954H170.334L170.564 28.1125C170.616 27.4863 171.154 27.0105 171.783 27.035C172.431 27.0596 172.937 27.6029 172.916 28.2506L172.833 30.7954Z" fill="#3F2F25"/>
<path d="M169.321 30.7954H166.822L167.052 28.1125C167.105 27.4863 167.642 27.0105 168.271 27.035C168.919 27.0596 169.425 27.6029 169.404 28.2506L169.321 30.7954Z" fill="#3F2F25"/>
<path d="M165.813 30.7954H163.314L163.545 28.1125C163.597 27.4863 164.134 27.0105 164.763 27.035C165.411 27.0596 165.918 27.6029 165.896 28.2506L165.813 30.7954Z" fill="#3F2F25"/>
<path d="M169.157 39.6761H166.996L167.196 37.3584C167.242 36.8151 167.705 36.4068 168.249 36.4283C168.81 36.4498 169.246 36.9194 169.228 37.4781L169.157 39.6761Z" fill="#3F2F25"/>
<path d="M169.157 47.8629H166.996L167.196 45.5453C167.242 45.002 167.705 44.5937 168.249 44.6152C168.81 44.6367 169.246 45.1064 169.228 45.665L169.157 47.8629Z" fill="#3F2F25"/>
<path d="M169.157 56.0529H166.996L167.196 53.7353C167.242 53.192 167.705 52.7837 168.249 52.8052C168.81 52.8267 169.246 53.2963 169.228 53.855L169.157 56.0529Z" fill="#3F2F25"/>
<path d="M169.556 40.0905L169.599 40.465L166.581 40.2839L166.572 40.0045L169.556 40.0905Z" fill="#211E1B"/>
<path d="M169.634 48.2927L169.677 48.6672L166.66 48.483L166.65 48.2067L169.634 48.2927Z" fill="#211E1B"/>
<path d="M169.582 56.455L169.625 56.8295L166.611 56.6484L166.602 56.369L169.582 56.455Z" fill="#211E1B"/>
<g style="mix-blend-mode:soft-light" opacity="0.8">
<path d="M172.671 35.4184C172.585 37.2603 172.496 39.1021 172.411 40.9439C172.401 41.1189 172.392 41.3031 172.303 41.4565C172.217 41.61 172.027 41.7205 171.861 41.6591C171.474 41.5118 171.401 40.9685 171.416 40.554C171.48 38.9087 171.548 37.2633 171.612 35.618C171.625 35.3141 171.655 34.9672 171.898 34.7799C172.064 34.651 172.306 34.6357 172.487 34.74C172.668 34.8444 172.678 35.2097 172.668 35.4184H172.671Z" fill="white"/>
</g>
<path d="M166.124 36.2349C166.171 36.2533 166.137 36.7168 166.097 36.7352C166.054 36.7567 165.087 36.7352 165.05 36.7137C165.013 36.6922 165.01 36.284 165.093 36.2533C165.173 36.2226 166.085 36.2164 166.128 36.2318L166.124 36.2349Z" fill="#FFE6C7"/>
<path d="M164.884 36.2349C164.93 36.2533 164.897 36.7168 164.857 36.7352C164.817 36.7536 163.847 36.7352 163.81 36.7137C163.773 36.6922 163.77 36.284 163.853 36.2533C163.933 36.2226 164.844 36.2164 164.887 36.2318L164.884 36.2349Z" fill="#FFE6C7"/>
<path d="M165.513 36.8519C165.559 36.8703 165.525 37.3338 165.486 37.3522C165.443 37.3737 164.476 37.3522 164.439 37.3307C164.402 37.3092 164.399 36.901 164.482 36.8703C164.562 36.8396 165.473 36.8334 165.516 36.8488L165.513 36.8519Z" fill="#FFE6C7"/>
<path d="M166.972 50.3341C167.018 50.3525 166.984 50.816 166.945 50.8344C166.902 50.8559 165.935 50.8344 165.898 50.813C165.861 50.7915 165.858 50.3832 165.941 50.3525C166.021 50.3218 166.932 50.3157 166.975 50.331L166.972 50.3341Z" fill="#FFE6C7"/>
<path d="M165.734 50.3341C165.78 50.3525 165.746 50.816 165.706 50.8344C165.663 50.8559 164.696 50.8344 164.659 50.813C164.623 50.7915 164.62 50.3832 164.702 50.3525C164.782 50.3218 165.694 50.3157 165.737 50.331L165.734 50.3341Z" fill="#FFE6C7"/>
<path d="M166.363 50.951C166.409 50.9695 166.375 51.433 166.335 51.4514C166.292 51.4729 165.325 51.4514 165.288 51.4299C165.252 51.4084 165.248 51.0002 165.331 50.9695C165.411 50.9388 166.323 50.9326 166.366 50.948L166.363 50.951Z" fill="#FFE6C7"/>
<path d="M172.427 55.4942C172.473 55.5127 172.439 55.9762 172.4 55.9946C172.357 56.0161 171.39 55.9946 171.353 55.9731C171.316 55.9516 171.313 55.5434 171.396 55.5127C171.476 55.482 172.387 55.4758 172.43 55.4912L172.427 55.4942Z" fill="#FFE6C7"/>
<path d="M171.818 56.1112C171.864 56.1296 171.83 56.5931 171.79 56.6116C171.747 56.633 170.78 56.6116 170.743 56.5901C170.707 56.5686 170.704 56.1603 170.786 56.1296C170.866 56.0989 171.778 56.0928 171.821 56.1081L171.818 56.1112Z" fill="#FFE6C7"/>
<path d="M171.492 42.8285C171.538 42.847 171.504 43.3105 171.464 43.3289C171.424 43.3473 170.454 43.3289 170.417 43.3074C170.38 43.2859 170.377 42.8777 170.46 42.847C170.54 42.8163 171.452 42.8101 171.495 42.8255L171.492 42.8285Z" fill="#FFE6C7"/>
<path d="M170.253 42.8285C170.299 42.847 170.266 43.3105 170.226 43.3289C170.183 43.3504 169.216 43.3289 169.179 43.3074C169.142 43.2859 169.139 42.8777 169.222 42.847C169.302 42.8163 170.213 42.8101 170.256 42.8255L170.253 42.8285Z" fill="#FFE6C7"/>
<path d="M170.882 43.4456C170.928 43.464 170.895 43.9275 170.855 43.946C170.812 43.9674 169.845 43.946 169.808 43.9245C169.771 43.903 169.768 43.4947 169.851 43.464C169.931 43.4333 170.842 43.4272 170.885 43.4425L170.882 43.4456Z" fill="#FFE6C7"/>
<path d="M167.308 61.1087C167.354 61.1271 167.32 61.5906 167.28 61.6091C167.237 61.6305 166.271 61.6091 166.234 61.5876C166.197 61.5661 166.194 61.1578 166.277 61.1271C166.356 61.0964 167.268 61.0903 167.311 61.1056L167.308 61.1087Z" fill="#FFE6C7"/>
<path d="M166.062 61.1087C166.108 61.1271 166.074 61.5906 166.034 61.6091C165.991 61.6305 165.024 61.6091 164.988 61.5876C164.951 61.5661 164.948 61.1578 165.031 61.1271C165.11 61.0964 166.022 61.0903 166.065 61.1056L166.062 61.1087Z" fill="#FFE6C7"/>
<path d="M166.693 61.7258C166.739 61.7442 166.705 62.2077 166.665 62.2261C166.622 62.2476 165.655 62.2261 165.618 62.2046C165.582 62.1831 165.579 61.7749 165.661 61.7442C165.741 61.7135 166.653 61.7073 166.696 61.7227L166.693 61.7258Z" fill="#FFE6C7"/>
<path d="M218 61.2068L136.834 69.053L137.248 83.849L218 82.4001V61.2068Z" fill="#CCB193"/>
<path d="M147.366 83.1276L147.016 74.5938C146.915 73.326 144.698 73.4488 144.198 72.7704C143.633 73.5286 141.441 73.7987 141.34 75.0236L141.162 83.2596L147.366 83.1306V83.1276Z" fill="#6B5546"/>
<path d="M157.189 82.9219L156.842 73.9277C156.734 72.5893 154.276 72.7274 153.726 72.0153C153.097 72.8165 150.669 73.1111 150.549 74.3974L150.312 83.0631L157.192 82.9189L157.189 82.9219Z" fill="#6B5546"/>
<path d="M168.134 82.6917L167.793 73.1848C167.68 71.7727 164.935 71.9293 164.325 71.1772C163.619 72.0275 160.911 72.3467 160.773 73.7066L160.463 82.8513L168.131 82.6917H168.134Z" fill="#6B5546"/>
<path d="M180.4 82.4338L180.072 72.3499C179.952 70.8519 176.87 71.0299 176.189 70.2379C175.393 71.1404 172.358 71.4934 172.195 72.9331L171.799 82.6119L180.4 82.4308V82.4338Z" fill="#6B5546"/>
<path d="M194.237 82.1453L193.924 71.4106C193.798 69.8143 190.308 70.023 189.544 69.1819C188.641 70.1458 185.212 70.5357 185.022 72.0675L184.521 82.3479L194.237 82.1453Z" fill="#6B5546"/>
<path d="M209.974 81.8167L209.686 70.3422C209.554 68.6354 205.572 68.8779 204.704 67.9846C203.669 69.0191 199.767 69.455 199.543 71.0881L198.914 82.05L209.977 81.8198L209.974 81.8167Z" fill="#6B5546"/>
<path d="M150.872 77.1876L146.866 77.5038L146.805 76.5307L150.844 76.5184L150.872 77.1876Z" fill="#CCB193"/>
<path d="M141.6 77.0372L141.631 77.6726L138.009 77.9642L137.947 77.0372H141.6Z" fill="#CCB193"/>
<path d="M161.176 76.6474L156.719 76.9912L156.654 75.9659L161.148 75.9413L161.176 76.6474Z" fill="#CCB193"/>
<path d="M172.513 76.0518L167.53 76.4325L167.463 75.3489L172.482 75.3059L172.513 76.0518Z" fill="#CCB193"/>
<path d="M185.384 75.3765L179.776 75.7971L179.705 74.6459L185.356 74.5845L185.384 75.3765Z" fill="#CCB193"/>
<path d="M200.014 74.609L193.645 75.0756L193.574 73.8539L199.987 73.7618L200.014 74.609Z" fill="#CCB193"/>
<path d="M216.44 73.7466L209.165 74.2715L209.088 72.9638L216.415 72.841L216.44 73.7466Z" fill="#CCB193"/>
<path d="M209.93 65.8144L199.818 66.6862V66.0078C203.155 65.5228 206.529 65.1483 209.927 64.9058V65.8113L209.93 65.8144Z" fill="#6B5546"/>
<path d="M194.173 67.1744L185.295 67.9387L185.289 67.3033C188.227 66.8643 191.189 66.5328 194.167 66.3271L194.173 67.1744Z" fill="#6B5546"/>
<path d="M180.324 68.3684L172.468 69.0468L172.459 68.4482C175.062 68.0492 177.681 67.7514 180.314 67.5734L180.324 68.3684Z" fill="#6B5546"/>
<path d="M168.046 69.4275L161.047 70.0322L161.035 69.4674C163.356 69.1021 165.692 68.835 168.034 68.6785L168.046 69.4275Z" fill="#6B5546"/>
<path d="M157.1 70.3699L150.823 70.9102L150.811 70.3761C152.895 70.0415 154.988 69.799 157.085 69.6608L157.1 70.3699Z" fill="#6B5546"/>
<path d="M147.265 71.2171L141.604 71.7052L141.592 71.1957C143.474 70.8856 145.361 70.6646 147.249 70.5418L147.265 71.2141V71.2171Z" fill="#6B5546"/>
<path d="M218.001 82.5628L137.24 83.5574L137.652 98.2091L218.001 103.446V82.5628Z" fill="#CCB193"/>
<path d="M147.74 98.3319L147.393 89.8749C147.292 88.6132 145.085 88.5518 144.584 87.8397C144.023 88.5426 141.837 88.6286 141.736 89.8258L141.555 97.9451L147.74 98.3288V98.3319Z" fill="#6B5546"/>
<path d="M157.529 98.9395L157.185 90.0312C157.078 88.702 154.632 88.6345 154.082 87.8855C153.456 88.6253 151.034 88.7143 150.917 89.976L150.678 98.5128L157.529 98.9395Z" fill="#6B5546"/>
<path d="M168.426 99.618L168.089 90.2063C167.978 88.8035 165.246 88.7298 164.635 87.9378C163.932 88.7175 161.237 88.8096 161.099 90.1388L160.789 99.1392L168.423 99.615L168.426 99.618Z" fill="#6B5546"/>
<path d="M180.633 100.379L180.307 90.4028C180.191 88.914 177.121 88.8342 176.442 87.9962C175.65 88.8219 172.63 88.9171 172.467 90.3261L172.074 99.8452L180.633 100.379Z" fill="#6B5546"/>
<path d="M194.393 101.236L194.083 90.6238C193.957 89.0398 190.488 88.9539 189.727 88.0637C188.827 88.9385 185.42 89.0398 185.23 90.5348L184.732 100.634L194.393 101.236Z" fill="#6B5546"/>
<path d="M210.031 102.209L209.745 90.8754C209.613 89.184 205.659 89.0889 204.797 88.1403C203.768 89.0735 199.891 89.181 199.667 90.7711L199.041 101.527L210.031 102.212V102.209Z" fill="#6B5546"/>
<path d="M151.233 92.7573L147.239 92.7389L147.178 91.7719L151.205 92.0942L151.233 92.7573Z" fill="#CCB193"/>
<path d="M141.993 91.8394L142.021 92.4687L138.411 92.4564L138.35 91.5386L141.993 91.8394Z" fill="#CCB193"/>
<path d="M161.499 93.0765L157.061 93.0488L156.996 92.0328L161.472 92.3766L161.499 93.0765Z" fill="#CCB193"/>
<path d="M172.787 93.4295L167.826 93.3927L167.762 92.3152L172.756 92.6897L172.787 93.4295Z" fill="#CCB193"/>
<path d="M185.589 93.8285L180.008 93.7794L179.938 92.6375L185.561 93.0427L185.589 93.8285Z" fill="#CCB193"/>
<path d="M200.136 94.2799L193.806 94.2154L193.732 93.0029L200.108 93.4449L200.136 94.2799Z" fill="#CCB193"/>
<path d="M216.452 94.7894L209.226 94.7066L209.152 93.4111L216.428 93.8962L216.452 94.7894Z" fill="#CCB193"/>
<path d="M209.987 86.4336L199.943 86.4551V85.7859C203.259 85.5833 206.611 85.4943 209.984 85.5403V86.4336H209.987Z" fill="#6B5546"/>
<path d="M194.332 86.4674L185.506 86.4858L185.5 85.8596C188.419 85.6693 191.366 85.5895 194.325 85.6324L194.332 86.4674Z" fill="#6B5546"/>
<path d="M180.557 86.495L172.742 86.5104L172.732 85.921C175.323 85.743 177.929 85.6662 180.548 85.7092L180.557 86.495Z" fill="#6B5546"/>
<path d="M168.341 86.5226L161.37 86.5379L161.357 85.9793C163.669 85.8135 165.993 85.7429 168.326 85.7828L168.338 86.5226H168.341Z" fill="#6B5546"/>
<path d="M157.434 86.5441L151.178 86.5564L151.166 86.0284C153.241 85.8719 155.329 85.8043 157.419 85.8442L157.434 86.5472V86.5441Z" fill="#6B5546"/>
<path d="M147.638 86.5656L141.993 86.5779L141.98 86.0745C143.856 85.9241 145.738 85.8627 147.623 85.8995L147.638 86.5656Z" fill="#6B5546"/>
<path d="M28.5038 67.7116C28.688 47.1692 28.0188 23.5294 27.4785 14.704H41.5623C41.2093 30.9059 41.0128 48.6426 40.8164 67.5244L28.5069 67.7116H28.5038Z" fill="#CCB193"/>
<path d="M27.9824 24.8341L41.3633 24.8433L41.3848 24.4258L27.9824 24.8341Z" fill="#211E1B"/>
<path d="M27.5352 15.717L41.9413 15.8429L42.018 15.2627L27.5352 15.717Z" fill="#211E1B"/>
<path d="M27.0117 14.2312L27.1099 15.5389C27.1161 15.6402 27.202 15.717 27.3033 15.7139L42.087 15.4438C42.1914 15.4438 42.2743 15.3578 42.2743 15.2534V14.3909C42.2743 14.2865 42.1914 14.2036 42.087 14.2005L27.2082 14.0286C27.0977 14.0286 27.0087 14.1207 27.0179 14.2312H27.0117Z" fill="#6B5546"/>
<path d="M27.4575 23.4404L27.5373 24.5762C27.5466 24.7235 27.6724 24.8401 27.8228 24.8371L41.5536 24.57C41.7071 24.57 41.8268 24.4442 41.8268 24.2907V23.5908C41.8268 23.4434 41.7102 23.3206 41.5628 23.3114C36.9091 23.0321 32.2985 22.9768 27.7277 23.1395C27.568 23.1457 27.4483 23.2807 27.4575 23.4404Z" fill="#6B5546"/>
<path d="M27.9438 54.4352L28.0236 55.8043C28.0328 55.9516 28.1526 56.0683 28.2999 56.0713C32.8492 56.1665 37.2051 56.0867 41.3001 55.7705C41.4475 55.7582 41.561 55.6354 41.561 55.4881V54.6071C41.561 54.4567 41.4475 54.3339 41.297 54.3247C37.5827 54.1067 33.0856 54.076 28.2232 54.1374C28.0635 54.1374 27.9346 54.2756 27.9438 54.4352Z" fill="#6B5546"/>
<path d="M34.744 4.30688C32.9758 5.51942 23.0822 7.73882 27.7266 14.0348L41.5587 14.0256C46.1541 8.39573 37.3686 5.66983 34.744 4.30688Z" fill="#FFBF3E"/>
<path d="M34.7188 4.30688C33.7979 5.51942 28.6408 7.73882 31.0628 14.0348L38.2704 14.0256C40.6648 8.39573 36.0879 5.66983 34.7188 4.30688Z" fill="#FF8A29"/>
<g style="mix-blend-mode:soft-light" opacity="0.8">
<path d="M29.186 8.22376C29.6833 7.67736 30.3003 7.25067 30.9542 6.90993C31.209 6.77793 31.4822 6.65514 31.7707 6.64593C31.8812 6.64286 31.9979 6.65821 32.0808 6.73188C32.1851 6.82397 32.2066 6.9836 32.1636 7.1156C32.1207 7.24759 32.0286 7.35811 31.9334 7.45634C31.2182 8.20535 30.2174 8.6658 29.6158 9.5069C29.4776 9.70029 29.361 9.9121 29.1983 10.0901C28.9926 10.3112 28.3234 10.6273 28.2191 10.1331C28.1792 9.94894 28.2958 9.70643 28.3603 9.54066C28.4493 9.3135 28.5598 9.09248 28.6887 8.88681C28.833 8.65045 29.0018 8.4325 29.1891 8.22683L29.186 8.22376Z" fill="white"/>
</g>
<path d="M29.176 21.5678H32.129L31.8589 18.3998C31.7944 17.66 31.1621 17.1013 30.4192 17.129C29.6548 17.1566 29.0562 17.7982 29.0808 18.5656L29.179 21.5678H29.176Z" fill="#3F2F25"/>
<path d="M33.3185 21.5678H36.2716L36.0015 18.3998C35.937 17.66 35.3046 17.1013 34.5618 17.129C33.7974 17.1566 33.1988 17.7982 33.2234 18.5656L33.3216 21.5678H33.3185Z" fill="#3F2F25"/>
<path d="M37.467 21.5678H40.42L40.1499 18.3998C40.0854 17.66 39.4531 17.1013 38.7102 17.129C37.9459 17.1566 37.3473 17.7982 37.3718 18.5656L37.4701 21.5678H37.467Z" fill="#3F2F25"/>
<path d="M33.5093 32.0509H36.0602L35.8269 29.3127C35.7717 28.6742 35.2253 28.1892 34.5837 28.2137C33.9207 28.2383 33.4049 28.7939 33.4264 29.4539L33.5093 32.0509Z" fill="#3F2F25"/>
<path d="M33.5093 41.7204H36.0602L35.8269 38.9822C35.7717 38.3437 35.2253 37.8587 34.5837 37.8833C33.9207 37.9078 33.4049 38.4635 33.4264 39.1235L33.5093 41.7204Z" fill="#3F2F25"/>
<path d="M33.5093 51.39H36.0602L35.8269 48.6518C35.7717 48.0133 35.2253 47.5283 34.5837 47.5528C33.9207 47.5774 33.4049 48.133 33.4264 48.793L33.5093 51.39Z" fill="#3F2F25"/>
<path d="M33.0394 32.542L32.9902 32.984L36.548 32.7691L36.5603 32.4407L33.0394 32.542Z" fill="#211E1B"/>
<path d="M32.9476 42.2238L32.8984 42.6659L36.4562 42.451L36.4716 42.1256L32.9476 42.2238Z" fill="#211E1B"/>
<path d="M33.0092 51.8628L32.957 52.3048L36.5179 52.0899L36.5302 51.7615L33.0092 51.8628Z" fill="#211E1B"/>
<g style="mix-blend-mode:soft-light" opacity="0.8">
<path d="M29.3657 27.0256C29.467 29.199 29.5714 31.3754 29.6727 33.5488C29.6819 33.7575 29.6942 33.9755 29.7986 34.1566C29.9029 34.3377 30.127 34.4666 30.3204 34.396C30.7778 34.2241 30.8637 33.5795 30.8453 33.0914C30.7686 31.1482 30.6888 29.2082 30.612 27.2651C30.5967 26.9059 30.5598 26.4976 30.2744 26.2735C30.081 26.1231 29.7924 26.1017 29.5775 26.2244C29.3627 26.3472 29.3504 26.7801 29.3627 27.0256H29.3657Z" fill="white"/>
</g>
<path d="M37.0971 27.9897C37.0418 28.0142 37.0817 28.5576 37.1308 28.5821C37.1799 28.6067 38.3249 28.5821 38.3679 28.5576C38.4109 28.5299 38.414 28.048 38.3188 28.0142C38.2236 27.9774 37.1492 27.9682 37.0971 27.9897Z" fill="#FFE6C7"/>
<path d="M38.558 27.9897C38.5027 28.0142 38.5426 28.5576 38.5918 28.5821C38.6409 28.6067 39.7859 28.5821 39.8288 28.5576C39.8718 28.5299 39.8749 28.048 39.7797 28.0142C39.6846 27.9774 38.6102 27.9682 38.558 27.9897Z" fill="#FFE6C7"/>
<path d="M37.8158 28.7203C37.7605 28.7448 37.8005 29.2882 37.8496 29.3127C37.8987 29.3373 39.0437 29.3127 39.0867 29.2882C39.1296 29.2605 39.1327 28.7786 39.0375 28.7448C38.9424 28.708 37.868 28.6988 37.8158 28.7203Z" fill="#FFE6C7"/>
<path d="M36.0873 44.6367C36.032 44.6612 36.0719 45.2046 36.121 45.2291C36.1702 45.2537 37.3152 45.2291 37.3581 45.2046C37.4011 45.18 37.4042 44.695 37.309 44.6612C37.2139 44.6244 36.1395 44.6152 36.0873 44.6367Z" fill="#FFE6C7"/>
<path d="M37.5541 44.6367C37.4988 44.6612 37.5387 45.2046 37.5878 45.2291C37.637 45.2537 38.782 45.2291 38.8249 45.2046C38.8679 45.1769 38.871 44.695 38.7758 44.6612C38.6807 44.6244 37.6063 44.6152 37.5541 44.6367Z" fill="#FFE6C7"/>
<path d="M36.806 45.3643C36.7508 45.3888 36.7907 45.9322 36.8398 45.9567C36.8889 45.9813 38.0339 45.9567 38.0769 45.9322C38.1199 45.9045 38.1229 45.4226 38.0278 45.3888C37.9326 45.3551 36.8582 45.3428 36.806 45.3643Z" fill="#FFE6C7"/>
<path d="M29.6498 50.7299C29.5945 50.7545 29.6344 51.2978 29.6836 51.3224C29.7327 51.3469 30.8777 51.3224 30.9206 51.2978C30.9636 51.2702 30.9667 50.7882 30.8715 50.7545C30.7764 50.7207 29.702 50.7084 29.6498 50.7299Z" fill="#FFE6C7"/>
<path d="M30.3705 51.4574C30.3152 51.482 30.3551 52.0253 30.4043 52.0498C30.4534 52.0744 31.5984 52.0498 31.6413 52.0253C31.6843 51.9977 31.6874 51.5157 31.5922 51.482C31.4971 51.4451 30.4227 51.4359 30.3705 51.4574Z" fill="#FFE6C7"/>
<path d="M30.7553 35.7744C30.7 35.799 30.7399 36.3423 30.789 36.3669C30.8381 36.3914 31.9831 36.3669 32.0261 36.3423C32.0691 36.3147 32.0722 35.8327 31.977 35.799C31.8818 35.7621 30.8074 35.7529 30.7553 35.7744Z" fill="#FFE6C7"/>
<path d="M32.2201 35.7744C32.1648 35.799 32.2047 36.3423 32.2539 36.3669C32.303 36.3914 33.448 36.3669 33.491 36.3423C33.5339 36.3147 33.537 35.8327 33.4418 35.799C33.3467 35.7621 32.2723 35.7529 32.2201 35.7744Z" fill="#FFE6C7"/>
<path d="M31.476 36.5018C31.4207 36.5264 31.4606 37.0697 31.5097 37.0943C31.5588 37.1188 32.7038 37.0943 32.7468 37.0697C32.7898 37.0421 32.7929 36.5602 32.6977 36.5264C32.6025 36.4896 31.5281 36.4803 31.476 36.5018Z" fill="#FFE6C7"/>
<path d="M35.7006 57.3575C35.6453 57.382 35.6852 57.9254 35.7343 57.9499C35.7834 57.9745 36.9284 57.9499 36.9714 57.9254C37.0144 57.8978 37.0175 57.4158 36.9223 57.382C36.8271 57.3452 35.7528 57.336 35.7006 57.3575Z" fill="#FFE6C7"/>
<path d="M37.1654 57.3574C37.1102 57.382 37.1501 57.9253 37.1992 57.9499C37.2483 57.9744 38.3933 57.9499 38.4363 57.9253C38.4792 57.8977 38.4823 57.4158 38.3872 57.382C38.292 57.3451 37.2176 57.3359 37.1654 57.3574Z" fill="#FFE6C7"/>
<path d="M36.4193 58.0849C36.3641 58.1095 36.404 58.6528 36.4531 58.6774C36.5022 58.7019 37.6472 58.6774 37.6902 58.6528C37.7332 58.6252 37.7362 58.1432 37.6411 58.1095C37.5459 58.0726 36.4715 58.0634 36.4193 58.0849Z" fill="#FFE6C7"/>
<path d="M46.9407 66.628C47.0788 51.1107 46.5754 33.2542 46.1641 26.5868H56.8037C56.5366 38.8257 56.3892 52.225 56.2419 66.4868L46.9438 66.628H46.9407Z" fill="#CCB193"/>
<path d="M46.5488 34.2397L56.6574 34.2458L56.6758 33.9296L46.5488 34.2397Z" fill="#211E1B"/>
<path d="M46.209 27.3513L57.0911 27.4464L57.1494 27.0074L46.209 27.3513Z" fill="#211E1B"/>
<path d="M45.8109 26.2276L45.8846 27.216C45.8907 27.2928 45.9552 27.3511 46.0289 27.348L57.1965 27.1424C57.2732 27.1424 57.3377 27.0779 57.3377 26.9981V26.3443C57.3377 26.2644 57.2732 26.203 57.1965 26.2L45.9552 26.071C45.8723 26.071 45.8048 26.1416 45.8109 26.2245V26.2276Z" fill="#6B5546"/>
<path d="M46.1504 33.1866L46.2118 34.0461C46.221 34.1596 46.3131 34.2456 46.4267 34.2425L56.7992 34.0399C56.9158 34.0399 57.0079 33.9448 57.0079 33.8281V33.3001C57.0079 33.1896 56.9189 33.0945 56.8084 33.0883C53.2936 32.8765 49.8095 32.8366 46.3561 32.9594C46.2363 32.9625 46.1442 33.0668 46.1535 33.1866H46.1504Z" fill="#6B5546"/>
<path d="M46.5218 56.5993L46.5832 57.6338C46.5893 57.7443 46.6814 57.8333 46.7919 57.8333C50.2269 57.9039 53.5176 57.8456 56.6119 57.6061C56.7224 57.5969 56.8084 57.5048 56.8084 57.3943V56.7313C56.8084 56.6177 56.7224 56.5256 56.6088 56.5195C53.8031 56.3568 50.408 56.3322 46.7336 56.3783C46.6108 56.3783 46.5156 56.4826 46.5218 56.6024V56.5993Z" fill="#6B5546"/>
<path d="M51.6592 18.7314C50.3238 19.6462 42.8491 21.3254 46.3578 26.0803L56.8071 26.0742C60.2789 21.8226 53.6422 19.7629 51.6592 18.7314Z" fill="#FFBF3E"/>
<path d="M51.6364 18.7314C50.9395 19.6462 47.0471 21.3254 48.8736 26.0803L54.3193 26.0742C56.1273 21.8226 52.6708 19.7629 51.6364 18.7314Z" fill="#FF8A29"/>
<g style="mix-blend-mode:soft-light" opacity="0.8">
<path d="M47.4615 21.6906C47.836 21.2792 48.3026 20.9538 48.7968 20.699C48.9902 20.5977 49.1959 20.5057 49.4138 20.4995C49.4967 20.4995 49.5857 20.5087 49.6502 20.564C49.73 20.6315 49.7453 20.7543 49.7146 20.8525C49.684 20.9538 49.6134 21.0336 49.5397 21.1104C48.9994 21.6752 48.2443 22.0221 47.7869 22.6606C47.6825 22.8079 47.5935 22.9676 47.4707 23.0996C47.3172 23.2684 46.8107 23.5047 46.7309 23.1333C46.7002 22.9921 46.7892 22.811 46.8383 22.6851C46.9059 22.5132 46.9888 22.3475 47.0839 22.1909C47.1944 22.0129 47.3203 21.8471 47.4615 21.6936V21.6906Z" fill="white"/>
</g>
<path d="M47.4455 31.7715H49.6741L49.4684 29.3802C49.4193 28.8216 48.9435 28.3979 48.3818 28.4194C47.8047 28.4409 47.3503 28.9259 47.3718 29.503L47.4455 31.7715Z" fill="#3F2F25"/>
<path d="M50.5744 31.7715H52.803L52.5973 29.3802C52.5482 28.8216 52.0724 28.3979 51.5107 28.4194C50.9336 28.4409 50.4792 28.9259 50.5007 29.503L50.5744 31.7715Z" fill="#3F2F25"/>
<path d="M53.7072 31.7715H55.9358L55.7301 29.3802C55.681 28.8216 55.2052 28.3979 54.6435 28.4194C54.0664 28.4409 53.6121 28.9259 53.6335 29.503L53.7072 31.7715Z" fill="#3F2F25"/>
<path d="M50.7231 39.6883H52.6509L52.4728 37.6194C52.4329 37.1374 52.0185 36.769 51.5335 36.7875C51.0331 36.8059 50.6433 37.2264 50.6586 37.7237L50.7231 39.6853V39.6883Z" fill="#3F2F25"/>
<path d="M50.7231 46.9942H52.6509L52.4728 44.9253C52.4329 44.4433 52.0185 44.075 51.5335 44.0934C51.0331 44.1118 50.6433 44.5323 50.6586 45.0296L50.7231 46.9912V46.9942Z" fill="#3F2F25"/>
<path d="M50.7231 54.297H52.6509L52.4728 52.2281C52.4329 51.7461 52.0185 51.3778 51.5335 51.3962C51.0331 51.4146 50.6433 51.8351 50.6586 52.3324L50.7231 54.294V54.297Z" fill="#3F2F25"/>
<path d="M50.3669 40.0597L50.3301 40.3942L53.0191 40.2316L53.0284 39.9829L50.3669 40.0597Z" fill="#211E1B"/>
<path d="M50.2966 47.3749L50.2598 47.7095L52.9488 47.5468L52.958 47.2982L50.2966 47.3749Z" fill="#211E1B"/>
<path d="M50.3465 54.6561L50.3066 54.9876L52.9957 54.828L53.0049 54.5793L50.3465 54.6561Z" fill="#211E1B"/>
<g style="mix-blend-mode:soft-light" opacity="0.8">
<path d="M47.5898 35.8942C47.6666 37.5365 47.7433 39.1788 47.8231 40.8211C47.8293 40.9776 47.8385 41.1434 47.9183 41.2784C47.995 41.4166 48.1669 41.5148 48.3143 41.4596C48.6581 41.3306 48.7256 40.8425 48.7103 40.4742C48.652 39.0069 48.5936 37.5396 48.5353 36.0722C48.523 35.799 48.4954 35.4921 48.2805 35.3232C48.1332 35.2096 47.9152 35.1943 47.7556 35.2864C47.5929 35.3785 47.5837 35.7069 47.5929 35.8911L47.5898 35.8942Z" fill="white"/>
</g>
<path d="M53.4331 36.6218C53.3901 36.6402 53.4208 37.0516 53.4576 37.07C53.4945 37.0884 54.3601 37.07 54.3908 37.0516C54.4215 37.0301 54.4246 36.6679 54.354 36.6402C54.2834 36.6126 53.4699 36.6065 53.4331 36.6218Z" fill="#FFE6C7"/>
<path d="M54.5405 36.6218C54.4975 36.6402 54.5282 37.0516 54.565 37.07C54.6019 37.0884 55.4675 37.07 55.4982 37.0516C55.5289 37.0301 55.532 36.6679 55.4614 36.6402C55.3908 36.6126 54.5773 36.6065 54.5405 36.6218Z" fill="#FFE6C7"/>
<path d="M53.9799 37.1743C53.937 37.1927 53.9677 37.6041 54.0045 37.6225C54.0413 37.6409 54.907 37.6225 54.9377 37.6041C54.9684 37.5826 54.9714 37.2203 54.9008 37.1927C54.8302 37.1651 54.0168 37.159 53.9799 37.1743Z" fill="#FFE6C7"/>
<path d="M52.6713 49.1952C52.6284 49.2136 52.6591 49.6249 52.6959 49.6433C52.7327 49.6618 53.5984 49.6433 53.6291 49.6249C53.6598 49.6034 53.6629 49.2412 53.5922 49.2136C53.5216 49.186 52.7082 49.1798 52.6713 49.1952Z" fill="#FFE6C7"/>
<path d="M53.7768 49.1952C53.7338 49.2136 53.7645 49.6249 53.8014 49.6433C53.8382 49.6618 54.7039 49.6433 54.7346 49.6249C54.7653 49.6034 54.7683 49.2412 54.6977 49.2136C54.6271 49.186 53.8136 49.1798 53.7768 49.1952Z" fill="#FFE6C7"/>
<path d="M53.2143 49.7478C53.1713 49.7662 53.202 50.1776 53.2389 50.196C53.2757 50.2144 54.1414 50.196 54.1721 50.1776C54.2028 50.1561 54.2058 49.7938 54.1352 49.7662C54.0646 49.7386 53.2511 49.7324 53.2143 49.7478Z" fill="#FFE6C7"/>
<path d="M47.81 53.7998C47.767 53.8183 47.7977 54.2296 47.8346 54.248C47.8714 54.2664 48.7371 54.248 48.7678 54.2296C48.7985 54.2081 48.8015 53.8459 48.7309 53.8183C48.6603 53.7906 47.8468 53.7845 47.81 53.7998Z" fill="#FFE6C7"/>
<path d="M48.353 54.3493C48.31 54.3677 48.3407 54.7791 48.3775 54.7975C48.4144 54.8159 49.28 54.7975 49.3107 54.7791C49.3414 54.7576 49.3445 54.3953 49.2739 54.3677C49.2033 54.3401 48.3898 54.3339 48.353 54.3493Z" fill="#FFE6C7"/>
<path d="M48.642 42.5033C48.5991 42.5217 48.6298 42.933 48.6666 42.9514C48.7034 42.9699 49.5691 42.9514 49.5998 42.933C49.6305 42.9115 49.6336 42.5493 49.563 42.5217C49.4923 42.4941 48.6789 42.4879 48.642 42.5033Z" fill="#FFE6C7"/>
<path d="M49.7495 42.5033C49.7065 42.5217 49.7372 42.933 49.774 42.9514C49.8109 42.9699 50.6765 42.9514 50.7072 42.933C50.7379 42.9115 50.741 42.5493 50.6704 42.5217C50.5998 42.4941 49.7863 42.4879 49.7495 42.5033Z" fill="#FFE6C7"/>
<path d="M49.1889 43.0528C49.1459 43.0712 49.1766 43.4825 49.2135 43.501C49.2503 43.5194 50.116 43.501 50.1467 43.4825C50.1774 43.4611 50.1804 43.0988 50.1098 43.0712C50.0392 43.0436 49.2258 43.0374 49.1889 43.0528Z" fill="#FFE6C7"/>
<path d="M52.3803 58.8034C52.3373 58.8218 52.368 59.2332 52.4049 59.2516C52.4417 59.27 53.3074 59.2516 53.3381 59.2332C53.3688 59.2117 53.3718 58.8494 53.3012 58.8218C53.2306 58.7942 52.4172 58.788 52.3803 58.8034Z" fill="#FFE6C7"/>
<path d="M53.4858 58.8034C53.4428 58.8218 53.4735 59.2332 53.5103 59.2516C53.5472 59.27 54.4128 59.2516 54.4435 59.2332C54.4742 59.2117 54.4773 58.8494 54.4067 58.8218C54.3361 58.7942 53.5226 58.788 53.4858 58.8034Z" fill="#FFE6C7"/>
<path d="M52.9233 59.3559C52.8803 59.3744 52.911 59.7857 52.9478 59.8041C52.9847 59.8225 53.8503 59.8041 53.881 59.7857C53.9117 59.7642 53.9148 59.402 53.8442 59.3744C53.7736 59.3467 52.9601 59.3406 52.9233 59.3559Z" fill="#FFE6C7"/>
<path d="M0 61.2068L81.1661 69.053L80.7547 83.849L0 82.4001V61.2068Z" fill="#CCB193"/>
<path d="M70.6328 83.1276L70.9828 74.5938C71.0841 73.326 73.3004 73.4488 73.8008 72.7704C74.3656 73.5286 76.5573 73.7987 76.6586 75.0236L76.8367 83.2596L70.6328 83.1306V83.1276Z" fill="#6B5546"/>
<path d="M60.8078 82.922L61.1546 73.9278C61.2621 72.5894 63.7209 72.7275 64.2704 72.0153C64.8997 72.8165 67.3278 73.1112 67.4475 74.3974L67.6839 83.0632L60.8047 82.9189L60.8078 82.922Z" fill="#6B5546"/>
<path d="M49.8613 82.6917L50.2021 73.1848C50.3156 71.7727 53.06 71.9293 53.6708 71.1772C54.3769 72.0275 57.0843 72.3467 57.2225 73.7066L57.5325 82.8513L49.8644 82.6917H49.8613Z" fill="#6B5546"/>
<path d="M37.5996 82.4338L37.9281 72.3499C38.0478 70.8519 41.1298 71.0299 41.8112 70.2379C42.6063 71.1404 45.6422 71.4934 45.8049 72.9331L46.2009 82.6119L37.5996 82.4308V82.4338Z" fill="#6B5546"/>
<path d="M23.7617 82.1453L24.0748 71.4106C24.2007 69.8143 27.6909 70.023 28.4553 69.1819C29.3578 70.1458 32.7866 70.5357 32.977 72.0675L33.4773 82.3479L23.7617 82.1453Z" fill="#6B5546"/>
<path d="M8.0226 81.8168L8.31115 70.3422C8.44315 68.6355 12.4246 68.878 13.2933 67.9847C14.3278 69.0192 18.2294 69.4551 18.4535 71.0882L19.0827 82.0501L8.01953 81.8198L8.0226 81.8168Z" fill="#6B5546"/>
<path d="M67.125 77.1876L71.131 77.5037L71.1924 76.5306L67.1526 76.5184L67.125 77.1876Z" fill="#CCB193"/>
<path d="M76.3959 77.0371L76.3652 77.6725L79.9875 77.9641L80.0489 77.0371H76.3959Z" fill="#CCB193"/>
<path d="M56.8164 76.6473L61.2736 76.9911L61.3381 75.9658L56.844 75.9413L56.8164 76.6473Z" fill="#CCB193"/>
<path d="M45.4883 76.0518L50.4673 76.4325L50.5349 75.3489L45.5159 75.3059L45.4883 76.0518Z" fill="#CCB193"/>
<path d="M32.6133 75.3765L38.2247 75.7971L38.2922 74.6459L32.6409 74.5845L32.6133 75.3765Z" fill="#CCB193"/>
<path d="M17.9824 74.609L24.3521 75.0756L24.4227 73.8539L18.01 73.7618L17.9824 74.609Z" fill="#CCB193"/>
<path d="M1.55469 73.7465L8.83296 74.2714L8.90663 72.9637L1.57925 72.8409L1.55469 73.7465Z" fill="#CCB193"/>
<path d="M8.07031 65.8144L18.1819 66.6862V66.0078C14.8452 65.5228 11.4715 65.1483 8.07338 64.9058V65.8113L8.07031 65.8144Z" fill="#6B5546"/>
<path d="M23.8242 67.1744L32.7018 67.9387L32.7079 67.3033C29.7702 66.8643 26.808 66.5328 23.8304 66.3271L23.8242 67.1744Z" fill="#6B5546"/>
<path d="M37.6738 68.3685L45.5292 69.0469L45.5384 68.4483C42.9353 68.0492 40.3168 67.7515 37.683 67.5734L37.6738 68.3685Z" fill="#6B5546"/>
<path d="M49.9531 69.4275L56.9521 70.0322L56.9643 69.4674C54.6436 69.1021 52.3076 68.835 49.9654 68.6785L49.9531 69.4275Z" fill="#6B5546"/>
<path d="M60.9023 70.3699L67.1799 70.9102L67.1922 70.3761C65.1078 70.0415 63.0143 69.799 60.9177 69.6608L60.9023 70.3699Z" fill="#6B5546"/>
<path d="M70.7324 71.2171L76.3929 71.7052L76.4052 71.1957C74.5235 70.8856 72.6356 70.6646 70.7478 70.5418L70.7324 71.2141V71.2171Z" fill="#6B5546"/>
<path d="M0 82.5629L80.7609 83.5574L80.3526 98.2091L0 103.446V82.5629Z" fill="#CCB193"/>
<path d="M70.2617 98.332L70.6086 89.8749C70.7099 88.6133 72.917 88.5519 73.4174 87.8397C73.9791 88.5427 76.1648 88.6286 76.2661 89.8258L76.4472 97.9452L70.2617 98.3289V98.332Z" fill="#6B5546"/>
<path d="M60.4707 98.9396L60.8145 90.0313C60.922 88.7021 63.3685 88.6346 63.918 87.8856C64.5442 88.6254 66.9662 88.7144 67.0828 89.976L67.3223 98.5129L60.4707 98.9396Z" fill="#6B5546"/>
<path d="M49.5703 99.6181L49.908 90.2064C50.0185 88.8035 52.7505 88.7298 53.3614 87.9379C54.0644 88.7176 56.7596 88.8097 56.8977 90.1389L57.2077 99.1392L49.5734 99.615L49.5703 99.6181Z" fill="#6B5546"/>
<path d="M37.3652 100.379L37.6906 90.4029C37.8073 88.9141 40.877 88.8342 41.5554 87.9962C42.3474 88.822 45.368 88.9171 45.5307 90.3261L45.9236 99.8453L37.3652 100.379Z" fill="#6B5546"/>
<path d="M23.6055 101.236L23.9155 90.6238C24.0414 89.0399 27.5101 88.9539 28.2714 88.0637C29.1708 88.9386 32.5782 89.0399 32.7685 90.5348L33.2658 100.634L23.6055 101.236Z" fill="#6B5546"/>
<path d="M7.9707 102.209L8.25619 90.8755C8.38818 89.1841 12.342 89.0889 13.2045 88.1404C14.2329 89.0736 18.1099 89.181 18.334 90.7711L18.9602 101.527L7.9707 102.212V102.209Z" fill="#6B5546"/>
<path d="M66.7656 92.7573L70.7593 92.7389L70.8207 91.772L66.7963 92.0943L66.7656 92.7573Z" fill="#CCB193"/>
<path d="M76.0073 91.8395L75.9766 92.4687L79.5896 92.4565L79.6479 91.5386L76.0073 91.8395Z" fill="#CCB193"/>
<path d="M56.502 93.0765L60.9407 93.0489L61.0052 92.0328L56.5296 92.3766L56.502 93.0765Z" fill="#CCB193"/>
<path d="M45.2168 93.4296L50.1744 93.3927L50.2419 92.3152L45.2444 92.6898L45.2168 93.4296Z" fill="#CCB193"/>
<path d="M32.4082 93.8286L37.9889 93.7795L38.0595 92.6375L32.4358 93.0427L32.4082 93.8286Z" fill="#CCB193"/>
<path d="M17.8633 94.2799L24.193 94.2155L24.2667 93.0029L17.8909 93.445L17.8633 94.2799Z" fill="#CCB193"/>
<path d="M1.54688 94.7895L8.77296 94.7066L8.84663 93.4112L1.57143 93.8962L1.54688 94.7895Z" fill="#CCB193"/>
<path d="M8.01172 86.4337L18.0558 86.4552V85.786C14.7405 85.5834 11.3884 85.4943 8.01479 85.5404V86.4337H8.01172Z" fill="#6B5546"/>
<path d="M23.668 86.4675L32.4934 86.4859L32.4995 85.8597C29.5802 85.6693 26.6333 85.5895 23.6741 85.6325L23.668 86.4675Z" fill="#6B5546"/>
<path d="M37.4453 86.4951L45.2608 86.5104L45.27 85.9211C42.6792 85.743 40.073 85.6663 37.4545 85.7092L37.4453 86.4951Z" fill="#6B5546"/>
<path d="M49.6602 86.5227L56.6315 86.538L56.6437 85.9793C54.3322 85.8136 52.0085 85.743 49.6755 85.7829L49.6632 86.5227H49.6602Z" fill="#6B5546"/>
<path d="M60.5645 86.5442L66.8205 86.5565L66.8328 86.0285C64.7577 85.8719 62.6703 85.8044 60.5798 85.8443L60.5645 86.5473V86.5442Z" fill="#6B5546"/>
<path d="M70.3594 86.5657L76.0046 86.578L76.0168 86.0746C74.1412 85.9241 72.2595 85.8627 70.3747 85.8996L70.3594 86.5657Z" fill="#6B5546"/>
<path d="M108.993 115.553V33.7972C100.428 37.1095 61.6055 49.3821 61.6055 49.3821C62.5049 70.5293 63.6161 94.2397 64.5217 115.556H108.993V115.553Z" fill="#211E1B"/>
<path d="M108.994 115.553V33.7972C117.559 37.1094 156.381 49.3821 156.381 49.3821C155.482 70.5293 154.371 94.2397 153.465 115.556H108.994V115.553Z" fill="#302C28"/>
<path d="M127.232 66.686L126.572 93.371L142.682 96.6249L143.64 70.735L127.232 66.686Z" fill="#FFBF3E"/>
<path d="M63.8457 97.8557L108.992 90.5253V115.553H64.521L63.8457 97.8557Z" fill="#5E4636"/>
<path d="M154.14 97.8557L108.994 90.5253V115.553H153.465L154.14 97.8557Z" fill="#6B5546"/>
<path d="M106.942 42.7086L107.049 48.5257L96.3636 51.4542L96.2715 45.9594L106.942 42.7086Z" fill="#FF8A29"/>
<path d="M78.5332 51.3621L78.5977 56.3227L87.2328 53.956L87.156 48.7344L78.5332 51.3621Z" fill="#FF8A29"/>
<path d="M63.7422 55.8684L63.7882 60.3778L70.8885 58.4347L70.8363 53.7073L63.7422 55.8684Z" fill="#FF8A29"/>
<path d="M95.3001 48.7375C95.3339 50.7512 93.6947 52.8324 91.6871 53.3758C89.7225 53.9068 88.1385 52.7618 88.1078 50.8279C88.0802 48.8971 89.615 46.8465 91.5735 46.2387C93.578 45.6156 95.2663 46.7268 95.3001 48.7375Z" fill="#FF8A29"/>
<path d="M77.5783 53.8915C77.6028 55.7057 76.2675 57.5445 74.6313 57.9865C73.0259 58.4193 71.7335 57.3449 71.7151 55.5952C71.6936 53.8455 72.9522 52.0343 74.5546 51.534C76.1877 51.0244 77.5568 52.0742 77.5813 53.8884L77.5783 53.8915Z" fill="#FF8A29"/>
<path d="M107.071 49.8424L63.7969 61.3999L63.8061 62.3699L107.095 51.0918L107.071 49.8424Z" fill="#FF8A29"/>
<path d="M111.053 42.7086L110.945 48.5257L121.631 51.4542L121.723 45.9594L111.053 42.7086Z" fill="#FFBF3E"/>
<path d="M139.459 51.3622L139.395 56.3228L130.76 53.9561L130.837 48.7345L139.459 51.3622Z" fill="#FFBF3E"/>
<path d="M154.252 55.8685L154.206 60.3779L147.105 58.4347L147.161 53.7074L154.252 55.8685Z" fill="#FFBF3E"/>
<path d="M122.69 48.7375C122.656 50.7512 124.295 52.8325 126.303 53.3758C128.268 53.9069 129.852 52.7619 129.882 50.828C129.91 48.8971 128.375 46.8466 126.417 46.2388C124.412 45.6156 122.724 46.7269 122.69 48.7375Z" fill="#FFBF3E"/>
<path d="M140.415 53.8915C140.391 55.7057 141.726 57.5444 143.362 57.9865C144.968 58.4193 146.26 57.3449 146.278 55.5951C146.3 53.8454 145.041 52.0343 143.439 51.5339C141.806 51.0244 140.437 52.0742 140.412 53.8884L140.415 53.8915Z" fill="#FFBF3E"/>
<path d="M110.921 49.8425L154.195 61.3999L154.185 62.3699L110.896 51.0918L110.921 49.8425Z" fill="#FFBF3E"/>
<path d="M83.0894 92.4808C70.4637 98.5527 63.8516 96.7968 63.8516 96.7968C64.6159 113.91 81.1862 103.154 83.47 95.0931C86.859 104.778 104.209 107.633 108.998 92.048V86.0989C100.488 93.9174 83.0894 92.4808 83.0894 92.4808Z" fill="#CCB193"/>
<path d="M79.7926 97.644C73.7422 105.14 69.5951 104.054 68.3242 103.17" stroke="#211E1B" stroke-width="0.97" stroke-linecap="round" stroke-linejoin="round"/>
<path d="M65.4727 99.5901C68.923 104.962 75.8513 100.29 77.2511 98.7859" stroke="#211E1B" stroke-width="0.97" stroke-linecap="round" stroke-linejoin="round"/>
<path d="M69.7285 100.444C71.6993 101.223 75.4105 98.3439 75.4105 98.3439" stroke="#211E1B" stroke-width="0.97" stroke-linecap="round" stroke-linejoin="round"/>
<path d="M87.1367 96.0079C94.6606 104.416 101.718 99.1758 104.778 96.6832" stroke="#211E1B" stroke-width="0.97" stroke-linecap="round" stroke-linejoin="round"/>
<path d="M94.0859 97.644C100.624 99.9002 106.073 92.4808 106.073 92.4808" stroke="#211E1B" stroke-width="0.97" stroke-linecap="round" stroke-linejoin="round"/>
<path d="M91.6016 95.2773C95.1287 97.0485 96.8415 96.8367 98.6588 96.0079" stroke="#211E1B" stroke-width="0.97" stroke-linecap="round" stroke-linejoin="round"/>
<path d="M134.908 92.4808C147.534 98.5527 154.146 96.7968 154.146 96.7968C153.382 113.91 136.812 103.154 134.528 95.0931C131.139 104.778 113.789 107.633 109 92.048V86.0989C117.509 93.9174 134.908 92.4808 134.908 92.4808Z" fill="#FFE6C7"/>
<path d="M138.205 97.644C144.255 105.14 148.403 104.054 149.674 103.17" stroke="#211E1B" stroke-width="0.97" stroke-linecap="round" stroke-linejoin="round"/>
<path d="M152.523 99.5901C149.072 104.962 142.144 100.29 140.744 98.7859" stroke="#211E1B" stroke-width="0.97" stroke-linecap="round" stroke-linejoin="round"/>
<path d="M148.268 100.444C146.297 101.223 142.586 98.3439 142.586 98.3439" stroke="#211E1B" stroke-width="0.97" stroke-linecap="round" stroke-linejoin="round"/>
<path d="M130.86 96.0079C123.336 104.416 116.279 99.1758 113.219 96.6832" stroke="#211E1B" stroke-width="0.97" stroke-linecap="round" stroke-linejoin="round"/>
<path d="M123.905 97.644C117.367 99.9002 111.918 92.4808 111.918 92.4808" stroke="#211E1B" stroke-width="0.97" stroke-linecap="round" stroke-linejoin="round"/>
<path d="M126.397 95.2773C122.87 97.0485 121.157 96.8367 119.34 96.0079" stroke="#211E1B" stroke-width="0.97" stroke-linecap="round" stroke-linejoin="round"/>
<path d="M82.9233 92.8062L82.4629 42.7086L82.6501 42.6196L83.5618 92.711L82.9233 92.8062Z" fill="#CCB193"/>
<g style="mix-blend-mode:soft-light" opacity="0.8">
<path d="M70.0094 78.9036C69.994 80.2542 69.7392 81.9149 68.3609 81.6417C67.5137 81.476 67.2835 80.3924 67.2344 79.5298C66.8414 72.6137 66.4485 65.7008 66.0587 58.7847C66.0218 58.1339 66.2428 57.6888 66.6358 57.17C67.0287 56.6482 67.8145 56.3596 68.3548 56.728C68.846 57.0626 68.9227 57.741 68.9565 58.3365C69.2941 64.7645 69.6318 71.1925 69.9695 77.6235C69.9848 77.9243 70.0155 78.3909 70.0094 78.9036Z" fill="white"/>
</g>
</svg>
