<svg width="14" height="22" viewBox="0 0 14 22" fill="none" xmlns="http://www.w3.org/2000/svg">
<path d="M4 17C3.578 17 3.22267 16.8553 2.934 16.566C2.64467 16.2773 2.5 15.922 2.5 15.5C2.5 15.078 2.64467 14.7227 2.934 14.434C3.22333 14.1453 3.57867 14.0007 4 14C4.42133 13.9993 4.77667 14.144 5.066 14.434C5.35533 14.7227 5.5 15.078 5.5 15.5C5.5 15.922 5.35533 16.2773 5.066 16.566C4.77733 16.8553 4.422 17 4 17ZM0.5 21.5C0.357333 21.5 0.238333 21.452 0.143 21.356C0.0476668 21.26 0 21.1413 0 21V13.5C0 13.358 0.0480001 13.2393 0.144 13.144C0.24 13.0487 0.359 13.0007 0.501 13C0.643 12.9993 0.761667 13.0473 0.857 13.144C0.952333 13.2407 1 13.3593 1 13.5V18H7V14.8C7 14.5733 7.07733 14.3833 7.232 14.23C7.38667 14.0767 7.57867 14 7.808 14H12.385C12.845 14 13.229 14.1543 13.537 14.463C13.845 14.7717 13.9993 15.156 14 15.616V21C14 21.142 13.952 21.2607 13.856 21.356C13.76 21.4513 13.641 21.4993 13.499 21.5C13.357 21.5007 13.2383 21.4527 13.143 21.356C13.0477 21.2593 13 21.1407 13 21V19H1V21C1 21.142 0.952 21.2607 0.856 21.356C0.76 21.4513 0.642 21.4993 0.5 21.5ZM7.8 6.65L5.15 9.3L5.375 10.768C5.39167 10.852 5.39067 10.9273 5.372 10.994C5.35333 11.0607 5.31067 11.1273 5.244 11.194L5.144 11.294C5.01067 11.4273 4.865 11.4773 4.707 11.444C4.549 11.4107 4.428 11.319 4.344 11.169L3.456 9.569L1.736 8.644C1.60267 8.57733 1.52767 8.47333 1.511 8.332C1.49433 8.19067 1.536 8.06967 1.636 7.969L1.836 7.769C1.86933 7.73567 1.986 7.694 2.186 7.644L3.7 7.844L6.375 5.175L1.675 2.625C1.49167 2.54167 1.39167 2.4 1.375 2.2C1.35833 2 1.41667 1.83333 1.55 1.7L1.725 1.525C1.80833 1.44167 1.896 1.38767 1.988 1.363C2.08 1.33833 2.17567 1.34233 2.275 1.375L8.55 3L11.25 0.3C11.45 0.0999999 11.6917 0 11.975 0C12.2583 0 12.5 0.0999999 12.7 0.3C12.9 0.5 13 0.741667 13 1.025C13 1.30833 12.9 1.55 12.7 1.75L10 4.45L11.6 10.7C11.6333 10.8167 11.6377 10.925 11.613 11.025C11.5883 11.125 11.534 11.2167 11.45 11.3L11.35 11.4C11.2 11.55 11.0167 11.6083 10.8 11.575C10.5833 11.5417 10.425 11.4333 10.325 11.25L7.8 6.65Z" fill="black"/>
</svg>
