<svg width="20" height="12" viewBox="0 0 20 12" fill="none" xmlns="http://www.w3.org/2000/svg">
<path d="M4.116 11.192C3.50667 11.192 2.989 10.979 2.563 10.553C2.13633 10.1263 1.923 9.60867 1.923 9H1.616C1.17133 9 0.791 8.84167 0.475 8.525C0.159 8.20833 0.000666667 7.82833 0 7.385V1.623C0 1.17033 0.158333 0.786667 0.475 0.472C0.791 0.157333 1.17067 0 1.614 0H13.444C13.6513 0 13.8493 0.0383331 14.038 0.115C14.2267 0.191666 14.3923 0.300333 14.535 0.441L19.001 4.637C19.159 4.78167 19.2813 4.95633 19.368 5.161C19.4547 5.36567 19.4983 5.58067 19.499 5.806V7.385C19.499 7.829 19.3407 8.209 19.024 8.525C18.7073 8.841 18.3273 8.99933 17.884 9C17.884 9.60933 17.6707 10.127 17.244 10.553C16.8173 10.9797 16.2997 11.193 15.691 11.193C15.0823 11.193 14.565 10.9797 14.139 10.553C13.7123 10.1263 13.499 9.60867 13.499 9H6.308C6.308 9.60267 6.09467 10.1187 5.668 10.548C5.24133 10.9773 4.724 11.192 4.116 11.192ZM12 4.577H17.462L13.827 1.173C13.763 1.12167 13.6957 1.08 13.625 1.048C13.5543 1.016 13.4807 1 13.404 1H12V4.577ZM6.5 4.577H11V1H6.5V4.577ZM1 4.577H5.5V1H1.616C1.436 1 1.28833 1.05767 1.173 1.173C1.05767 1.28833 1 1.436 1 1.616V4.577ZM4.116 10.25C4.466 10.25 4.76167 10.129 5.003 9.887C5.24433 9.645 5.36533 9.34933 5.366 9C5.36667 8.65067 5.24567 8.35467 5.003 8.112C4.76033 7.86933 4.46467 7.74867 4.116 7.75C3.76733 7.75133 3.47133 7.87233 3.228 8.113C2.98467 8.35367 2.864 8.64933 2.866 9C2.868 9.35067 2.98867 9.64667 3.228 9.888C3.46733 10.1293 3.76333 10.25 4.116 10.25ZM15.692 10.25C16.042 10.25 16.338 10.129 16.58 9.887C16.822 9.645 16.9427 9.34933 16.942 9C16.9413 8.65067 16.8207 8.35467 16.58 8.112C16.3393 7.86933 16.0433 7.74867 15.692 7.75C15.3407 7.75133 15.045 7.87233 14.805 8.113C14.565 8.35367 14.444 8.64933 14.442 9C14.44 9.35067 14.561 9.64667 14.805 9.888C15.049 10.1293 15.3447 10.25 15.692 10.25ZM6.046 8H13.762C13.904 7.7 14.1487 7.42633 14.496 7.179C14.8433 6.93167 15.242 6.808 15.692 6.808C16.142 6.808 16.5313 6.922 16.86 7.15C17.1887 7.378 17.443 7.66133 17.623 8H17.885C18.0643 8 18.2117 7.94233 18.327 7.827C18.4423 7.71167 18.5 7.56433 18.5 7.385V5.577H1V7.385C1 7.56433 1.05767 7.71167 1.173 7.827C1.28833 7.94233 1.436 8 1.616 8H2.184C2.32667 7.7 2.57167 7.42633 2.919 7.179C3.267 6.93167 3.666 6.808 4.116 6.808C4.566 6.808 4.955 6.922 5.283 7.15C5.611 7.378 5.86533 7.66133 6.046 8Z" fill="black"/>
</svg>
