<svg width="25" height="25" viewBox="0 0 25 25" fill="none" xmlns="http://www.w3.org/2000/svg">
<path d="M24 20.4999C23.5 20.4999 23.073 20.3869 22.633 20.1924C22.175 19.9869 21.707 19.8664 21.1715 19.8664C20.6615 19.8677 20.1577 19.9789 19.6945 20.1924C19.2382 20.3941 18.7449 20.4989 18.246 20.4999C17.7454 20.4982 17.2504 20.3935 16.792 20.1924C16.3221 19.9792 15.8124 19.8681 15.2965 19.8664C14.7615 19.8664 14.251 19.9869 13.793 20.1924C13.353 20.3874 12.8545 20.4999 12.338 20.4999C11.8366 20.4992 11.3408 20.3945 10.882 20.1924C10.4105 19.9785 9.89879 19.8673 9.381 19.8664C8.86321 19.8673 8.35155 19.9785 7.88 20.1924C7.42078 20.3938 6.92497 20.4985 6.4235 20.4999C5.92035 20.4992 5.42276 20.3945 4.962 20.1924C4.49122 19.9788 3.98045 19.8677 3.4635 19.8664C2.9447 19.8669 2.43197 19.978 1.9595 20.1924C1.49892 20.3929 1.00233 20.4975 0.5 20.4999V18.3649C1 18.3649 1.5155 18.2499 1.959 18.0544C2.43125 17.841 2.94328 17.7299 3.4615 17.7284C3.9945 17.7284 4.509 17.8494 4.961 18.0544C5.4217 18.2576 5.91947 18.3633 6.423 18.3649C6.94 18.3649 7.436 18.2499 7.8795 18.0544C8.3512 17.8404 8.86304 17.7293 9.381 17.7284C9.89871 17.7301 10.4102 17.8412 10.882 18.0544C11.3225 18.2499 11.822 18.3649 12.3385 18.3649C12.855 18.3649 13.3545 18.2499 13.7945 18.0544C14.2676 17.8414 14.7802 17.7304 15.299 17.7284C15.832 17.7284 16.343 17.8494 16.7975 18.0544C17.2574 18.2573 17.7543 18.363 18.257 18.3649C18.776 18.3649 19.27 18.2499 19.716 18.0544C20.1868 17.8408 20.6976 17.7297 21.2145 17.7284C21.75 17.7284 22.175 17.8494 22.633 18.0544C23.073 18.2499 23.5 18.3649 24 18.3649V20.4999ZM0.514 11.4999L0.5055 16.4549C1.022 16.4549 1.5185 16.2994 1.962 16.1044C2.417 15.8984 2.9305 15.7559 3.463 15.7559C3.996 15.7559 4.5095 15.8654 4.9615 16.0714C5.42209 16.2715 5.9191 16.3741 6.42128 16.3728C6.92346 16.3715 7.41994 16.2663 7.8795 16.0639C8.35089 15.8493 8.86256 15.7375 9.3805 15.7359C9.9135 15.7359 10.424 15.8554 10.8815 16.0614C11.3402 16.2642 11.8363 16.3689 12.3378 16.3688C12.8394 16.3687 13.3354 16.2638 13.794 16.0609C14.2666 15.8463 14.7795 15.735 15.2985 15.7344C15.8315 15.7344 16.3425 15.8549 16.797 16.0609C17.2572 16.2626 17.7541 16.3671 18.2565 16.3679C18.4025 16.3679 18.5425 16.3374 18.6855 16.3214C18.946 16.2669 19.21 16.2419 19.463 16.1434L19.48 16.1349C21.36 15.3889 22.9815 13.6294 23.994 12.2519L24.5 11.4999H0.514ZM13.902 5.99987H17.424C17.4635 5.99987 18.375 5.85937 18.681 6.52637L20.0045 9.49987H15.493L13.902 5.99987ZM4.5 9.19087C4.5 9.42387 4.308 9.49987 4.0725 9.49987H2.136C1.9 9.49987 1.5 9.42387 1.5 9.19087V6.32637C1.5 6.09637 1.9 5.99987 2.136 5.99987H4.072C4.308 5.99987 4.5 6.09637 4.5 6.32637V9.19087ZM12.5 9.19087C12.5 9.42387 12.291 9.49987 12.0525 9.49987H10.119C9.8805 9.49987 9.5 9.42387 9.5 9.19087V6.32637C9.5 6.09637 9.8805 5.99987 10.119 5.99987H12.0525C12.291 5.99987 12.5 6.09637 12.5 6.32637V9.19087ZM8.5 9.19087C8.5 9.42387 8.292 9.49987 8.054 9.49987H6.132C5.893 9.49987 5.5 9.42387 5.5 9.19087V6.32637C5.5 6.09637 5.893 5.99987 6.132 5.99987H8.054C8.292 5.99987 8.5 6.09637 8.5 6.32637V9.19087ZM19.2725 5.65237C18.697 4.40137 17.1395 4.49987 17.1395 4.49987H0.5025L0.5 10.4999H21.3575L19.2725 5.65237Z" fill="black"/>
</svg>
