<svg width="24" height="24" viewBox="0 0 24 24" fill="none" xmlns="http://www.w3.org/2000/svg">
<path d="M16.539 9.18611C16.0739 9.01765 15.5827 8.93267 15.088 8.93511C13.488 8.93511 12.358 9.74111 12.35 10.8981C12.34 11.7481 13.153 12.2271 13.768 12.5111C14.399 12.8031 14.61 12.9871 14.608 13.2481C14.604 13.6451 14.104 13.8251 13.639 13.8251C13 13.8251 12.651 13.7361 12.114 13.5131L11.915 13.4201L11.688 14.7521C12.077 14.9141 12.778 15.0531 13.502 15.0651C15.203 15.0651 16.315 14.2641 16.328 13.0331C16.342 12.3541 15.902 11.8411 14.976 11.4171C14.413 11.1421 14.064 10.9581 14.064 10.6791C14.064 10.4321 14.363 10.1681 14.988 10.1681C15.404 10.158 15.8174 10.2361 16.201 10.3971L16.351 10.4641L16.578 9.17711L16.539 9.18611ZM20.691 9.04311H19.441C19.052 9.04311 18.759 9.15011 18.589 9.53611L16.185 14.9821H17.886L18.226 14.0891L20.302 14.0911C20.351 14.3001 20.501 14.9821 20.501 14.9821H22.001L20.691 9.04311ZM10.049 8.99311H11.67L10.656 14.9351H9.03705L10.049 8.99111V8.99311ZM5.93405 12.2681L6.10205 13.0931L7.68605 9.04311H9.40305L6.85205 14.9741H5.13905L3.73905 9.95211C3.71628 9.86935 3.66305 9.79826 3.59005 9.75311C3.08524 9.49292 2.55064 9.29513 1.99805 9.16411L2.02005 9.03911H4.62905C4.98305 9.05311 5.26805 9.16411 5.36305 9.54211L5.93305 12.2711L5.93405 12.2681ZM18.691 12.8741L19.337 11.2121C19.329 11.2301 19.47 10.8691 19.552 10.6461L19.663 11.1591L20.038 12.8731H18.69L18.691 12.8741Z" fill="black"/>
</svg>
