<svg width="81" height="46" viewBox="0 0 81 46" fill="none" xmlns="http://www.w3.org/2000/svg">
<g clip-path="url(#clip0_348_189)">
<path d="M17.8096 30.22C13.6896 30.22 10.3496 33.56 10.3496 37.68C10.3496 41.8 13.6896 45.14 17.8096 45.14C21.9296 45.14 25.2696 41.8 25.2696 37.68C25.2696 33.56 21.9296 30.22 17.8096 30.22ZM17.8096 40.92C16.0196 40.92 14.5696 39.47 14.5696 37.68C14.5696 35.89 16.0196 34.44 17.8096 34.44C19.5996 34.44 21.0496 35.89 21.0496 37.68C21.0496 39.47 19.5996 40.92 17.8096 40.92Z" fill="black"/>
<path d="M61.6202 30.22C57.5002 30.22 54.1602 33.56 54.1602 37.68C54.1602 41.8 57.5002 45.14 61.6202 45.14C65.7402 45.14 69.0802 41.8 69.0802 37.68C69.0802 33.56 65.7402 30.22 61.6202 30.22ZM61.6202 40.92C59.8302 40.92 58.3802 39.47 58.3802 37.68C58.3802 35.89 59.8302 34.44 61.6202 34.44C63.4102 34.44 64.8702 35.89 64.8702 37.68C64.8702 39.47 63.4202 40.92 61.6202 40.92Z" fill="black"/>
<path d="M75.86 0H8.92C6.47 0 4.06 1.97 3.57 4.37L0.89 14.14C0.4 16.54 0 20.51 0 22.97V33.23C0 35.68 2.01 37.69 4.46 37.69H9.01C9.01 32.84 12.96 28.89 17.81 28.89C22.66 28.89 26.61 32.84 26.61 37.69H52.82C52.82 32.84 56.77 28.89 61.62 28.89C66.47 28.89 70.42 32.84 70.42 37.69H75.86C78.31 37.69 80.32 35.68 80.32 33.23V4.46C80.32 2.01 78.31 0 75.86 0ZM18.53 18.81H8.14L9.79 14.91C10.08 14.23 9.76 13.45 9.08 13.16C8.4 12.87 7.61 13.19 7.33 13.87L5.29 18.71C3.91 18.35 3.07 17.06 3.36 15.53L5.76 5.96C6.09 4.15 7.87 2.67 9.71 2.67H18.54V18.81H18.53ZM38.38 18.81H21.21V2.67H38.38V18.81ZM58.22 18.81H41.05V2.67H58.22V18.81ZM77.59 15.47C77.59 17.31 76.09 18.81 74.25 18.81H60.9V2.67H74.25C76.09 2.67 77.59 4.18 77.59 6.02V15.47Z" fill="black"/>
</g>
<defs>
<clipPath id="clip0_348_189">
<rect width="80.32" height="45.14" fill="white"/>
</clipPath>
</defs>
</svg>
