<svg width="73" height="69" viewBox="0 0 73 69" fill="none" xmlns="http://www.w3.org/2000/svg">
<g clip-path="url(#clip0_348_193)">
<path d="M72.83 37.92C72.83 39.43 71.48 40.67 69.83 40.67H3C1.35 40.67 0 39.43 0 37.92C0 36.41 1.35 35.17 3 35.17H69.83C71.48 35.17 72.83 36.41 72.83 37.92ZM39.92 3.34C39.83 1.48 38.3 0 36.42 0C34.54 0 33.03 1.47 32.92 3.32C34.04 3.18 35.19 3.11 36.34 3.11C37.49 3.11 38.74 3.2 39.91 3.34H39.92ZM67.15 32.73H5.69C6.93 16.84 20.21 4.33 36.42 4.33C52.63 4.33 65.91 16.84 67.15 32.73ZM32.9 7.03C32.9 7.03 15.67 10.79 10.53 29.86H17.04C17.04 29.86 20.64 13.95 32.9 7.03Z" fill="black"/>
</g>
<defs>
<clipPath id="clip0_348_193">
<rect width="72.83" height="68.5" fill="white"/>
</clipPath>
</defs>
</svg>
