<svg width="80" height="74" viewBox="0 0 80 74" fill="none" xmlns="http://www.w3.org/2000/svg">
<path d="M71.5272 11.0682C66.8562 11.0682 63.0554 14.866 63.0554 19.5345V26.0523H16.9436V19.5345C16.9436 14.866 13.1434 11.0682 8.4718 11.0682C3.80024 11.0682 0 14.866 0 19.5345V65.4177C0 70.0862 3.80024 73.8839 8.4718 73.8839H11.6721C11.6755 73.8839 11.6794 73.8839 11.6828 73.8839C11.6862 73.8839 11.6891 73.8839 11.6924 73.8839H18.8086C18.812 73.8839 18.8159 73.8839 18.8193 73.8839C18.8227 73.8839 18.8256 73.8839 18.829 73.8839H59.5706C59.575 73.8839 59.5788 73.8839 59.5832 73.8839H64.2615C64.2654 73.8839 64.2688 73.8839 64.2727 73.8839C64.2756 73.8839 64.2785 73.8839 64.2819 73.8839H71.5282C76.1993 73.8839 80 70.0862 80 65.4177V19.5345C80 14.866 76.1998 11.0682 71.5282 11.0682H71.5272ZM64.9906 19.5345C64.9906 15.9325 67.9229 13.0022 71.5272 13.0022C75.1315 13.0022 78.0638 15.9325 78.0638 19.5345V60.038C76.5089 58.1544 74.1557 56.9519 71.5272 56.9519C68.8988 56.9519 66.546 58.1548 64.9906 60.038V19.5345ZM49.4563 53.1871L62.4265 71.95H60.0743L47.7954 54.1869C47.4984 53.7571 46.9135 53.6411 46.4747 53.9239L18.5338 71.95H14.9653L28.1194 63.4639C28.3395 63.3218 28.4924 63.097 28.5436 62.8403C28.5949 62.5835 28.5398 62.3171 28.3908 62.102L16.9436 45.5418V42.1391L30.0521 61.1021C30.2394 61.3734 30.5413 61.5194 30.8489 61.5194C31.0289 61.5194 31.2108 61.4691 31.3729 61.3647L63.0559 40.9246V43.2269L49.7282 51.8251C49.5081 51.9673 49.3552 52.1921 49.3039 52.4488C49.2527 52.7055 49.3078 52.9719 49.4568 53.1871H49.4563ZM57.722 71.95H22.1014L46.7359 56.057L57.722 71.95ZM63.0554 27.9862V38.6227L31.1112 59.2316L16.9436 38.7364V27.9867H63.0559L63.0554 27.9862ZM1.9352 19.5345C1.9352 15.9325 4.8675 13.0022 8.4718 13.0022C12.0761 13.0022 15.0084 15.9325 15.0084 19.5345V60.038C13.4535 58.1544 11.1003 56.9519 8.4718 56.9519C5.84332 56.9519 3.49061 58.1548 1.9352 60.038V19.5345ZM1.9352 65.4177C1.9352 61.8158 4.8675 58.8854 8.4718 58.8854C12.0761 58.8854 15.0084 61.8158 15.0084 65.4177C15.0084 65.9519 15.4414 66.3846 15.976 66.3846C16.5106 66.3846 16.9436 65.9519 16.9436 65.4177V48.9441L26.2311 62.38L11.3973 71.95H8.47228C4.86798 71.95 1.93568 69.0196 1.93568 65.4177H1.9352ZM71.5272 71.95H64.7787L51.616 52.9091L63.0554 45.5288V65.4177C63.0554 65.9519 63.4884 66.3846 64.023 66.3846C64.5576 66.3846 64.9906 65.9519 64.9906 65.4177C64.9906 61.8158 67.9229 58.8854 71.5272 58.8854C75.1315 58.8854 78.0638 61.8158 78.0638 65.4177C78.0638 69.0196 75.1315 71.95 71.5272 71.95Z" fill="black"/>
<path d="M57.7147 17.7036C57.7147 32.8699 39.9994 47.4047 39.9994 47.4047C39.9994 47.4047 22.2842 32.8699 22.2842 17.7036C22.2842 7.92617 30.2156 0 39.9994 0C49.7833 0 57.7147 7.92617 57.7147 17.7036Z" fill="black"/>
<path d="M39.9989 30.571C47.11 30.571 52.8747 24.8101 52.8747 17.7036C52.8747 10.5972 47.11 4.8363 39.9989 4.8363C32.8877 4.8363 27.123 10.5972 27.123 17.7036C27.123 24.8101 32.8877 30.571 39.9989 30.571Z" fill="white"/>
</svg>
