<svg width="83" height="73" viewBox="0 0 83 73" fill="none" xmlns="http://www.w3.org/2000/svg">
<g clip-path="url(#clip0_348_195)">
<path d="M0.516602 70.4041V8.90304L40.4562 0.560181V70.4041H0.516602Z" fill="white"/>
<path d="M18.9474 60.2106C11.6728 60.2106 5.75195 51.2675 5.75195 40.2787C5.75195 29.29 11.6728 20.3469 18.9474 20.3469C26.222 20.3469 32.1482 29.29 32.1482 40.2787C32.1482 51.2675 26.2274 60.2106 18.9474 60.2106Z" fill="white"/>
<path d="M18.3825 27.1343C21.6392 27.2743 23.8956 29.385 25.3309 31.9209C27.7721 36.2474 28.0059 41.9493 26.2987 46.5409C25.3798 49.0218 23.7161 51.6327 21.0575 52.8331C20.5029 53.0832 19.8994 53.2232 19.3014 53.3583C19.0023 53.4233 18.687 53.4033 18.3825 53.4233C17.2625 53.3382 16.9254 53.3783 15.7076 52.8281C13.0489 51.6277 11.3852 49.0168 10.4664 46.5359C8.75917 41.9493 8.99296 36.2474 11.4396 31.9209C12.3965 30.2203 13.8046 28.5848 15.713 27.7245C16.2621 27.4744 16.8819 27.3744 17.4691 27.1993L18.388 27.1293L18.3825 27.1343Z" fill="black"/>
<path d="M12.9239 40.2838C12.9239 33.8415 16.4361 30.1503 20.0027 29.335C19.633 29.25 19.2524 29.205 18.8664 29.205C14.7561 29.205 11.4287 34.1617 11.4287 40.2787C11.4287 46.3958 14.7561 51.3525 18.8664 51.3525C19.2524 51.3525 19.633 51.3075 20.0027 51.2275C16.4361 50.4122 12.9239 46.5409 12.9239 40.2838Z" fill="white"/>
<path d="M40.8856 0L40.9237 0.0150051L61.4589 7.11744V70.8293H40.9237V70.8443H0.0434953V17.9762V8.55793L40.8856 0.0250086V0ZM39.9777 13.3596L0.994956 17.8661V69.969H33.2087L33.6219 64.5421L34.0351 69.969H34.78L35.2204 59.2103L35.6607 69.969H36.3621L36.8134 53.8735L37.2646 69.969H37.9551L38.4118 48.5366L38.8685 69.969H39.9831V16.4306L28.2502 17.3259L39.9831 15.6153V14.9101L25.336 16.2056L39.9831 14.0848V13.3646L39.9777 13.3596ZM39.9777 1.10538L0.994956 9.25317V9.79335L11.2816 7.86769L0.994956 10.4536V17.8361L39.9777 12.0741V1.10538Z" fill="black"/>
<path d="M45.7191 6.48718C45.8931 16.3806 45.9257 26.279 45.9529 36.1723C45.9257 46.0657 45.8931 55.9591 45.7191 65.8525C45.5397 55.9591 45.5125 46.0657 45.4854 36.1723C45.5125 26.279 45.5452 16.3856 45.7191 6.48718Z" fill="white"/>
<path d="M49.2807 7.70264C49.4655 17.606 49.509 27.5144 49.5199 37.4178C49.4873 46.9011 49.4601 56.3743 49.2807 65.8576C49.0958 55.9542 49.0577 46.0458 49.0469 36.1424C49.0741 26.6641 49.1067 17.1859 49.2807 7.70264Z" fill="white"/>
<path d="M52.8364 8.91296C53.0267 18.8314 53.081 28.7448 53.0702 38.6632C53.043 47.7263 53.0104 56.7894 52.8364 65.8575C52.6515 55.9441 52.5917 46.0257 52.608 36.1123C52.6352 27.0492 52.6733 17.9811 52.8364 8.91797V8.91296Z" fill="white"/>
<path d="M56.3976 10.1234C56.5825 20.0468 56.6586 29.9752 56.6314 39.8986C56.6042 48.5516 56.5661 57.1995 56.3976 65.8475C56.2073 55.9241 56.1366 45.9957 56.1638 36.0673C56.191 27.4193 56.2291 18.7664 56.3976 10.1184V10.1234Z" fill="white"/>
<path d="M9.05245 24.3833C7.85633 26.299 6.75808 28.2446 6.0404 30.3653C5.18681 32.9012 4.55069 35.5871 4.45282 38.248C4.35496 41.009 4.43651 43.7849 5.04001 46.5059C5.60001 49.0167 6.44817 51.4076 7.62255 53.7283C8.04663 54.5686 8.56313 55.3689 9.05245 56.1742C7.68779 54.3336 6.42642 52.4379 5.6272 50.3172C4.68117 47.8013 4.00699 45.2604 3.78952 42.6045C3.56117 39.9136 3.74059 37.2277 4.2734 34.5718C4.78447 32.0459 5.687 29.47 7.06798 27.2293C7.68235 26.2389 8.34022 25.3086 9.04702 24.3783L9.05245 24.3833Z" fill="#414042"/>
<path d="M37.5748 9.94335L26.0322 11.689V5.94198L37.5748 3.57617V9.94335Z" fill="#414042"/>
<path d="M18.9473 19.9119H21.2851V20.432H18.9473V19.9119Z" fill="#414042"/>
<path d="M18.9473 60.1956H21.3884V60.6457H18.9473V60.1956Z" fill="#414042"/>
<path d="M28.9571 35.2871C26.0321 35.2871 23.667 37.5229 23.667 40.2788C23.667 43.0348 26.0375 45.2755 28.9571 45.2755V35.2871Z" fill="white"/>
<path d="M26.3094 36.7726C26.3094 36.7726 26.2224 36.8726 26.0593 37.0377C25.9723 37.1127 25.8798 37.2177 25.7928 37.3428C25.7004 37.4628 25.5917 37.5929 25.4938 37.7579C25.4449 37.8379 25.396 37.918 25.3416 38.008C25.2981 38.098 25.2546 38.1881 25.2057 38.2831C25.1024 38.4632 25.048 38.6832 24.961 38.8933C24.9066 39.1134 24.8359 39.3385 24.8142 39.5735C24.7598 39.8036 24.7653 40.0437 24.749 40.2838C24.7653 40.5239 24.7544 40.7689 24.8033 40.994C24.8305 41.2291 24.8958 41.4542 24.9501 41.6743C25.0371 41.8843 25.0915 42.0994 25.1948 42.2845C25.2872 42.4745 25.3796 42.6546 25.4884 42.8046C25.5862 42.9647 25.695 43.1047 25.7874 43.2198C25.8798 43.3448 25.9723 43.4499 26.0593 43.5249C26.2224 43.6849 26.3094 43.78 26.3094 43.78C26.3094 43.78 26.1952 43.715 25.994 43.5899C25.8907 43.5299 25.7765 43.4399 25.6569 43.3348C25.5264 43.2348 25.3905 43.1097 25.2655 42.9497C25.2002 42.8747 25.1295 42.7996 25.0643 42.7096C25.0045 42.6196 24.9447 42.5245 24.8794 42.4295C24.7435 42.2445 24.6565 42.0194 24.5532 41.7893C24.4825 41.5542 24.3847 41.3141 24.3521 41.054C24.2923 40.804 24.2923 40.5339 24.2705 40.2788C24.2868 40.0137 24.2923 39.7536 24.3521 39.5035C24.3847 39.2434 24.488 39.0083 24.5587 38.7683C24.6674 38.5432 24.749 38.3181 24.8849 38.133C24.9447 38.038 25.0045 37.948 25.0643 37.8529C25.135 37.7679 25.2002 37.6879 25.2655 37.6129C25.3851 37.4578 25.5319 37.3328 25.6624 37.2227C25.782 37.1127 25.8907 37.0277 25.994 36.9626C26.1897 36.8326 26.3039 36.7626 26.3039 36.7626L26.3094 36.7726Z" fill="#414042"/>
<path d="M26.7229 10.9037C26.6414 9.81835 26.6522 8.72797 26.6631 7.6426C26.6685 7.43253 26.5272 6.4672 26.8208 6.40718C27.4732 6.27213 28.1256 6.13709 28.7781 6.00204C31.2138 5.49687 33.655 5.0167 36.1125 4.59656C33.0569 5.37182 29.9796 6.03705 26.8969 6.71728C26.9295 6.67227 26.9839 6.60725 27.0274 6.56723C27.0274 8.00773 26.9186 9.47323 26.7175 10.9037C26.6631 10.1785 26.8208 10.1785 26.7175 10.9037H26.7229Z" fill="white"/>
<path d="M21.856 9.60823C21.8832 8.928 22.2964 8.03269 23.1826 8.07271C23.9003 8.09772 24.4005 8.72793 24.4821 9.34314C24.5908 10.1434 24.1395 11.0837 23.1718 11.1438C22.291 11.1988 21.8778 10.2685 21.8506 9.60823H21.856ZM21.856 9.60823C21.8941 10.2585 22.2529 10.9287 23.0304 10.9837C23.7916 11.0337 24.1287 10.1584 24.1558 9.60823C24.0688 9.03804 23.8786 8.26277 23.0793 8.23276C22.2801 8.20275 21.8941 8.98802 21.856 9.60823Z" fill="black"/>
<path d="M18.1862 9.21312C18.7517 8.46787 19.7847 9.07307 20.0783 9.68328C20.4045 10.3585 20.1 11.0738 19.5291 11.5239C18.9419 11.9841 18.1482 11.5539 17.9035 10.9787C17.6371 10.4135 17.735 9.67328 18.1862 9.21312C18.2406 9.1381 18.0557 9.34817 18.1862 9.21312ZM18.2406 9.26314C17.7839 9.60826 17.6806 10.2235 17.8328 10.7236C17.9687 11.1938 18.5722 11.769 19.1486 11.4989C19.7901 11.1888 19.975 10.4385 19.7847 9.82833C19.6161 9.26814 18.7897 8.70295 18.2406 9.26314C18.3058 9.19812 18.0992 9.36818 18.2406 9.26314Z" fill="black"/>
<path d="M14.0539 10.0035C14.5161 9.38824 15.4458 9.79338 15.7394 10.3186C16.0765 10.8938 15.8808 11.499 15.4621 11.9741C14.9837 12.5143 14.1899 12.2942 13.8637 11.734C13.5483 11.1989 13.619 10.4586 14.0539 9.99845C13.9343 10.1235 14.1083 9.92843 14.0539 9.99845V10.0035ZM14.1083 10.0535C13.358 10.6137 13.6679 12.4343 14.8586 12.0992C15.4893 11.9491 15.6307 11.1288 15.511 10.6387C15.3751 10.1185 14.6411 9.51829 14.1083 10.0535C14.1681 9.99845 13.9778 10.1535 14.1083 10.0535Z" fill="black"/>
<path d="M9.57477 11.6889C9.59652 11.1588 9.92274 10.4635 10.6132 10.5135C11.2928 10.5636 11.6625 11.2488 11.5919 11.819C11.5321 12.3292 11.1515 12.8894 10.5262 12.8643C9.87924 12.8643 9.59108 12.1891 9.56934 11.6939L9.57477 11.6889ZM9.57477 11.6889C9.60739 12.1691 9.8738 12.6693 10.4556 12.6993C10.9394 12.7243 11.2058 12.1841 11.2439 11.814C11.2874 11.3738 11.0754 10.7336 10.5154 10.6786C9.90642 10.6136 9.60739 11.2238 9.57477 11.6839V11.6889Z" fill="black"/>
<path d="M9.05209 64.162L3.13672 64.5471V67.6882H9.05209V64.167V64.162Z" fill="black"/>
<path d="M3.78906 64.8422C5.14286 64.6672 6.52383 64.6072 7.8885 64.5871C7.99724 64.5871 8.50831 64.5071 8.58986 64.5821C8.67685 64.6572 8.61705 65.1173 8.61705 65.2124C8.64423 65.9176 8.6551 66.6228 8.61705 67.3281C8.4485 66.4728 8.33976 65.6075 8.25821 64.7422C8.31802 64.7922 8.37239 64.8422 8.43219 64.8872C6.88267 64.9423 5.33315 64.9673 3.78906 64.8422C4.17508 64.8722 4.17508 64.7922 3.78906 64.8422Z" fill="white"/>
<path d="M18.948 19.9119C20.0027 19.9469 19.421 19.9019 20.6878 20.0919H20.6552L20.0027 19.9819C20.367 19.9419 20.7367 19.9119 21.1119 19.9119C25.6735 19.9869 29.1205 23.118 31.2354 26.5791C35.7698 34.0167 35.9329 44.7754 32.0727 52.463C30.3383 55.9142 27.4133 59.4554 23.1997 60.4107C22.2319 60.6308 21.96 60.6158 21.1173 60.6458C20.7422 60.6458 20.3779 60.6158 20.0136 60.5708L20.6661 60.4658L20.7095 60.4557C19.421 60.6508 20.0136 60.6008 18.9534 60.6458C15.0388 60.5908 11.8746 58.215 9.76503 55.354C5.3122 49.3269 4.57278 41.2292 5.89938 34.2168C6.86172 29.12 9.98795 22.6678 15.539 20.5471C16.7189 20.0969 17.007 20.1219 18.2521 19.9369L18.9534 19.9119H18.948ZM18.948 20.7872C18.1651 20.8172 17.9095 20.8022 17.0124 21.0122C10.9775 22.4277 7.8023 29.5001 6.79647 34.4919C6.29628 36.9677 6.04074 39.7387 6.29084 42.2745C6.6823 46.2209 7.45434 49.8771 9.53125 53.3833C11.7713 57.1546 15.8435 60.7258 20.8781 59.5554C25.6354 58.4451 28.7888 53.5884 30.1317 49.567C32.4098 42.7297 32.2032 35.2321 29.1368 28.6248C27.7721 25.6888 25.4016 22.6978 22.1231 21.3974C21.0249 20.9672 20.7639 20.9922 19.6004 20.8122L18.9425 20.7872H18.948Z" fill="black"/>
<path d="M67.2381 22.4576C68.8148 22.4576 70.4459 22.7828 72.0987 23.428C73.0502 23.7981 73.9038 24.2132 75.176 24.8835L75.5077 25.0585C76.084 25.3636 76.3721 25.5137 76.7038 25.6787C77.4921 26.0739 77.9651 26.379 78.4164 26.8842C79.4657 28.1246 79.656 29.7151 79.1613 31.2006L79.183 31.2156C80.1562 31.9859 80.7054 32.9312 80.8902 34.0866C80.9446 34.5968 80.8739 35.117 80.689 35.6772C80.6619 35.7472 80.6347 35.8172 80.6075 35.8872C80.6075 35.8972 80.6021 35.9072 80.5966 35.9172C82.7768 37.2027 83.4564 39.3184 82.7116 41.5842C82.6355 41.8493 82.5539 42.0744 82.4615 42.2844C82.1788 42.9297 81.7057 43.4848 81.1675 43.965C79.6506 52.9331 78.1283 61.9011 76.6114 70.8692C76.5135 71.4344 76.5679 71.1443 76.4646 71.7445C75.823 71.8896 76.1383 71.8195 75.5294 71.9596C74.3659 72.2297 73.2731 72.3847 71.3702 72.5798C68.6191 72.8599 65.6995 72.9999 62.4482 72.9999C61.3445 72.9999 60.1701 72.9849 58.9631 72.9499C56.473 72.8849 54.4342 72.7299 52.5421 72.4598C51.4167 72.2997 50.6827 72.1647 49.9052 71.9546C48.5677 71.5144 48.6493 69.9789 48.4644 68.9185C48.1491 67.1379 47.8338 65.3573 47.5184 63.5717C45.2893 50.9924 46.9149 60.1856 44.1801 44.7553C44.104 44.3101 44.0225 43.87 43.9409 43.4248C41.8912 41.9193 42.3696 39.3634 43.4407 37.4828C42.9786 36.2974 43.1254 35.0269 43.37 33.8215C43.9246 31.4157 44.8489 29.7201 46.2842 28.5297C47.5456 27.4794 49.2419 26.8041 51.4276 26.464C52.1561 26.349 52.7433 26.289 53.9883 26.2039C54.0137 26.2039 54.0391 26.2023 54.0645 26.1989C55.8967 26.0689 56.7068 25.9588 57.6365 25.6587C58.1476 25.4937 58.6641 25.2936 59.2676 25.0185C59.6319 24.8535 59.92 24.7184 60.5996 24.3933C60.7627 24.3133 60.8334 24.2783 60.9204 24.2382C62.296 23.578 63.1441 23.2179 64.1282 22.9128C65.1177 22.6077 66.167 22.4526 67.249 22.4526L67.2381 22.4576ZM67.2381 24.4983C66.4008 24.4983 65.5962 24.6184 64.8241 24.8535C63.9162 25.1336 63.2039 25.4437 61.6381 26.1989C61.6381 26.1989 61.6326 26.2006 61.6218 26.2039C60.0505 26.9642 59.3274 27.2843 58.3651 27.5894C57.1907 27.9695 56.2555 28.0946 54.1623 28.2446C53.7763 28.2696 53.6078 28.2796 53.4012 28.2996C52.7705 28.3497 52.2703 28.4047 51.8027 28.4747C50.0683 28.7498 48.7417 29.245 47.7685 30.0502C46.6648 30.9656 45.9798 32.346 45.5394 34.2467C45.2512 35.4821 45.2893 36.4824 45.7242 37.2427L45.9254 37.5928L45.7025 37.9329C44.4357 39.8886 44.3541 41.3241 45.7025 42.0994L46.1429 42.3595C46.0396 42.7046 46.0667 42.7846 46.1266 43.1047C46.1338 43.1581 46.1429 43.2114 46.1537 43.2648C46.1719 43.3715 46.19 43.4782 46.2081 43.5849C47.078 48.4866 47.7087 52.0478 48.3339 55.569C48.5188 56.6143 48.7091 57.6947 48.9157 58.8451C49.1875 60.4056 49.4703 61.9762 49.8617 64.1769C49.9922 64.9138 50.1209 65.6491 50.2477 66.3827C50.3746 67.1163 50.5051 67.8515 50.6392 68.5884C50.6773 68.7935 50.7099 68.9836 50.7806 69.3837C50.7842 69.4104 50.7896 69.4387 50.7969 69.4687C50.8349 69.6738 50.873 69.8789 50.911 70.089L51.0198 70.114C52.3899 70.374 51.7755 70.269 52.8683 70.4341C54.7223 70.6942 56.6959 70.8342 59.0175 70.8992C60.1919 70.9292 61.3282 70.9442 62.4427 70.9442C65.5418 70.9442 68.4016 70.8142 71.1255 70.5341C72.251 70.4191 73.3818 70.299 74.4964 70.0689C74.6051 69.4387 74.7084 68.8135 74.8172 68.1833C74.8172 68.1833 74.8172 68.1733 74.8172 68.1533C75.0129 66.9829 75.1108 66.4277 75.2195 65.7625C75.5566 63.7818 75.8284 62.1662 76.4265 58.64C76.4265 58.64 76.4301 58.6234 76.4374 58.59C77.0463 54.9988 77.3127 53.4082 77.6498 51.4176C77.8401 50.2822 77.9869 49.4419 78.3512 47.3011C78.6883 45.3105 78.8514 44.3351 79.0471 43.1847L79.0906 42.9297L79.3026 42.7596C79.8626 42.3144 80.1997 41.9393 80.4063 41.4842C80.4661 41.3641 80.5096 41.2241 80.564 41.039L80.5857 40.974C80.9065 40.1537 80.8848 39.3334 80.4933 38.6432C80.3248 38.3481 80.091 38.103 79.8246 37.9529C79.7213 37.8979 79.7648 37.9279 79.6778 37.8479C79.6778 37.8479 79.6669 37.8379 79.6452 37.8179C79.5745 37.7579 79.5473 37.7329 79.5147 37.7079C79.3733 37.5928 79.2211 37.5128 78.8894 37.3427C78.5034 37.1527 78.2533 36.9226 78.1881 36.5025C78.15 36.2324 78.1989 35.9773 78.3077 35.6872C78.3403 35.5921 78.3784 35.5071 78.4382 35.3821C78.5306 35.182 78.5469 35.137 78.5686 35.077C78.6665 34.7669 78.71 34.4968 78.6883 34.2567C78.6176 33.5014 78.0467 32.8512 77.0463 32.301L76.47 31.9809L76.7418 31.4107C77.3725 30.0853 77.3997 28.9449 76.7147 28.1696C76.4917 27.9195 76.2199 27.7444 75.6653 27.4644C75.3282 27.2993 75.051 27.1542 74.491 26.8591C74.4728 26.8491 74.4547 26.8391 74.4366 26.8291C74.268 26.7391 74.1865 26.6941 74.0886 26.6441C72.8816 26.0089 72.0878 25.6237 71.2451 25.2986C69.8913 24.7734 68.543 24.4933 67.2544 24.4933L67.2381 24.4983ZM44.7565 43.6749C44.838 44.1201 44.7782 43.7949 44.9304 44.6452L47.2085 57.5046L47.2629 57.7847C46.2516 52.0778 47.0236 56.4543 44.9304 44.6502L44.7782 43.8099L44.7565 43.6799V43.6749ZM79.1993 51.0224C78.4871 55.2089 77.7803 59.3903 77.0681 63.5767L78.15 57.1945L79.1939 51.0224H79.1993Z" fill="white"/>
<path d="M74.8442 34.4117C76.1872 33.1763 77.541 31.4407 77.5518 29.6151C77.5627 28.8898 77.28 28.1896 76.6819 27.6994C76.3557 27.4343 75.9642 27.2693 75.5837 27.0742C75.127 26.8441 74.6811 26.604 74.2299 26.364C72.3704 25.3886 70.4349 24.4483 68.2764 24.2182C66.3083 24.0031 64.5522 24.4983 62.8015 25.2936C61.0725 26.0839 59.4034 27.0042 57.5277 27.4943C55.5486 28.0145 53.4554 27.8545 51.4383 28.2196C49.8942 28.4997 48.3664 29.0199 47.2519 30.0702C45.9633 31.2906 45.349 33.1113 45.0771 34.7568C44.8977 35.9122 45.0064 37.1076 45.8763 38.0079C46.2243 38.3681 46.7354 38.9333 47.2899 38.9983C47.8554 39.0633 48.4589 38.9983 49.0297 38.9483C49.9812 38.8632 50.9272 38.7432 51.8678 38.6081C57.1525 37.8629 62.3937 36.8576 67.6186 35.8422C70.0217 35.377 72.4357 34.8969 74.8388 34.4067L74.8442 34.4117Z" fill="white"/>
<path d="M47.7525 39.4085C47.41 39.4085 46.9642 39.4185 46.6869 39.1984C46.5129 39.0834 46.3498 38.9433 46.1867 38.8133C45.8333 38.5332 45.4962 38.2231 45.2352 37.863C44.4251 36.7576 44.5067 35.3521 44.7948 34.1017C45.1754 32.4311 45.8442 30.6955 47.2578 29.5251C48.4811 28.5148 50.085 28.0346 51.678 27.7795C53.8364 27.4394 56.033 27.5944 58.1207 26.9192C60.3716 26.194 62.3289 24.8735 64.5852 24.1783C66.9014 23.463 69.3262 23.7831 71.539 24.6534C72.5503 25.0436 73.5127 25.5337 74.4641 26.0389C74.9861 26.314 75.4971 26.5891 76.0245 26.8542C76.503 27.0943 76.9542 27.3344 77.3076 27.7295C78.5853 29.165 77.835 31.2257 76.9053 32.6362C76.6226 33.0763 76.2963 33.4865 75.9429 33.8816C75.7527 34.0867 75.5569 34.2917 75.3558 34.4868C75.2416 34.5968 75.1328 34.7469 74.9697 34.7769C74.8338 34.8119 74.6979 34.8369 74.5565 34.8669C72.7624 35.2321 70.9682 35.5922 69.174 35.9423C63.4109 37.0677 57.6368 38.2031 51.8139 39.0184C50.4764 39.2034 49.1118 39.4135 47.758 39.4135L47.7525 39.4085ZM47.2251 38.6082C49.2966 38.6082 51.3246 38.3131 53.3689 38.003C56.3972 37.5379 59.4038 36.9977 62.4105 36.4425C65.2159 35.9273 68.0105 35.3871 70.8105 34.8319C71.7293 34.6469 72.6536 34.4618 73.5725 34.2767C73.8443 34.2217 74.1161 34.1667 74.388 34.1117C74.9861 33.9916 75.421 33.2714 75.7581 32.8362C76.715 31.6108 77.96 29.345 76.4649 28.0446C76.068 27.6995 75.5406 27.4994 75.0676 27.2593C74.5294 26.9792 74.002 26.6941 73.4583 26.414C72.4742 25.9039 71.4684 25.4287 70.4027 25.0836C69.2936 24.7285 68.1247 24.5234 66.9394 24.5534C65.6835 24.5984 64.5037 24.9836 63.3674 25.4737C61.2905 26.379 59.3332 27.5194 57.066 28.0096C55.0217 28.4497 52.885 28.2647 50.8353 28.7498C49.2966 29.11 47.8721 29.8102 46.9533 31.0406C46.3933 31.7909 46.0725 32.6612 45.8061 33.5265C45.5615 34.3218 45.3657 35.157 45.4201 35.9823C45.4908 36.9977 46.0453 37.7129 46.8717 38.3481C46.937 38.4031 47.1436 38.6182 47.2197 38.6182L47.2251 38.6082Z" fill="black"/>
<path d="M76.0898 27.3243C73.4257 26.0289 70.8867 24.3583 67.7822 24.1832C69.6036 24.7884 71.4739 25.6087 72.8821 26.8691C73.6758 27.5794 74.5131 28.7198 73.7411 29.7051C72.6646 31.0906 70.4518 30.9656 68.9185 31.5808C68.5597 31.7208 68.0976 32.0159 68.5434 32.336C69.098 32.7312 69.9135 32.8762 70.5768 33.0263C71.7838 33.3014 73.0125 33.4914 74.2358 33.6715C74.5349 33.7165 74.8285 33.7565 75.1275 33.7965C75.3124 33.8215 75.3885 33.8815 75.5135 33.7415C75.6277 33.6115 75.7419 33.4814 75.8561 33.3514C76.2312 32.9062 76.5683 32.4311 76.851 31.9259C77.7046 30.3904 78.0417 28.2696 76.0898 27.3243C78.5473 28.5197 73.6976 26.1639 76.0898 27.3243Z" fill="black"/>
<path d="M79.1555 37.1227C77.9322 36.5775 78.9326 35.4872 79.025 34.6119C79.1501 33.3714 78.0138 32.4011 76.9209 31.8709C74.4363 30.6705 71.3644 30.3954 68.6079 30.2254C65.0956 30.0103 61.5181 30.1203 58.0331 30.6155C55.2548 31.0106 52.4004 31.6108 50.0952 33.1614C48.8501 34.0067 47.6975 35.007 46.6917 36.0974C45.7674 37.1077 44.8703 38.2531 44.4843 39.5386C44.1798 40.5689 44.3701 41.6293 45.3596 42.2795C45.5064 42.3695 45.9794 42.7046 46.1262 42.5996C46.2567 42.5046 46.3981 42.4095 46.534 42.3145C46.8656 42.0894 47.2027 41.8743 47.5561 41.6693C49.9538 40.2838 52.7049 39.4735 55.4723 39.0034C59.9632 38.2481 64.677 38.2781 69.1951 38.8133C71.919 39.1334 74.7135 39.6786 77.171 40.849C77.992 41.2391 78.9 41.7193 79.4872 42.3995C79.6013 42.5296 79.585 42.8097 79.6122 42.9697C81.5586 41.5492 81.526 38.1881 79.1501 37.1277C77.1982 36.2574 81.1617 38.028 79.1501 37.1277L79.1555 37.1227Z" fill="white"/>
<path d="M79.3352 43.665C79.2917 43.4599 79.2482 43.2598 79.2102 43.0547C79.183 42.9347 79.1884 42.6646 79.0906 42.5696C79.0036 42.4745 78.9003 42.3895 78.797 42.3045C78.362 41.9494 77.8673 41.6543 77.3562 41.3892C75.0944 40.2138 72.463 39.6486 69.9131 39.2935C65.3678 38.6632 60.5724 38.6032 56.0326 39.2985C54.0155 39.6086 52.0256 40.1037 50.1553 40.854C49.3126 41.1941 48.4916 41.5842 47.7141 42.0344C47.3553 42.2395 47.0019 42.4645 46.6594 42.6946C46.5234 42.7897 46.3929 42.8847 46.257 42.9797C46.1102 43.0848 46.0994 43.0597 45.9308 42.9897C41.989 41.4542 44.8489 37.4128 46.7192 35.4822C47.8827 34.2767 49.2201 33.1614 50.7099 32.2961C52.1778 31.4508 53.8905 30.9856 55.565 30.6305C60.1701 29.6602 65.0579 29.5101 69.7499 29.9102C71.816 30.0903 73.9201 30.3704 75.8774 31.0206C77.416 31.5358 79.2809 32.5061 79.4385 34.1867C79.4766 34.5568 79.4059 34.927 79.2917 35.2721C79.1776 35.6172 78.884 36.0373 78.9383 36.4025C78.9601 36.5575 79.1069 36.6476 79.2428 36.7176C79.5092 36.8476 79.7647 36.9777 80.004 37.1627C80.4607 37.5178 80.8141 37.978 81.0533 38.4832C81.5372 39.5035 81.5916 40.7239 81.1131 41.7593C80.738 42.5796 80.0692 43.1098 79.3352 43.6499V43.665ZM62.595 38.073C66.5095 38.073 70.5166 38.3331 74.2843 39.3785C76.0024 39.8536 77.7585 40.4989 79.1504 41.5542C79.4059 41.7493 79.6723 41.9594 79.8626 42.2095C80.5694 41.4142 80.7597 40.3388 80.4933 39.3585C80.3737 38.9133 80.1562 38.4832 79.8463 38.1231C79.4983 37.7279 79.0688 37.5679 78.6393 37.2828C77.9325 36.8126 78.0902 36.1174 78.3512 35.4671C78.6284 34.7619 78.7589 34.1067 78.2805 33.4364C77.4323 32.246 75.7849 31.7559 74.3713 31.4058C72.2455 30.8856 70.0327 30.6655 67.8416 30.5655C65.2373 30.4404 62.6167 30.5054 60.0179 30.7655C57.8377 30.9806 55.6411 31.3207 53.5534 31.9609C52.0147 32.4361 50.7099 33.1564 49.4648 34.1117C48.0675 35.187 46.7572 36.4375 45.7786 37.863C45.0718 38.9033 44.1584 40.6039 45.2566 41.6893C45.4089 41.8443 45.5992 41.9744 45.7895 42.0794C45.9199 42.1494 45.9689 42.2195 46.0994 42.1294C46.1863 42.0744 46.2679 42.0144 46.3549 41.9594C46.7029 41.7293 47.0617 41.5092 47.426 41.2991C48.2198 40.854 49.0462 40.4639 49.8998 40.1237C53.8741 38.5482 58.2998 38.073 62.595 38.073Z" fill="black"/>
<path d="M78.3461 37.6079C76.155 37.3278 74.1434 36.6425 72.1263 35.8273C69.7286 34.8619 67.3961 33.9316 64.781 33.6265C62.1658 33.3214 59.5017 33.3364 56.9138 33.8266C55.7231 34.0516 54.5487 34.4218 53.4722 34.9369C52.5099 35.3971 51.6834 35.9873 50.8896 36.6675C51.6563 35.9523 52.4555 35.3221 53.4069 34.8219C54.4726 34.2617 55.647 33.8366 56.8431 33.5615C59.393 32.9763 62.0571 32.8362 64.6777 33.0263C67.3146 33.2214 69.7014 33.9916 72.148 34.8669C74.2195 35.6122 76.2638 36.2624 78.4874 36.4575C78.444 36.8376 78.395 37.2227 78.3461 37.6079Z" fill="black"/>
<path d="M55.9782 27.4694C58.4846 27.5944 60.9693 27.6695 63.4703 27.3794C66.0583 27.0893 68.8474 26.309 71.0929 27.9646C68.8148 26.4591 66.1996 27.3344 63.6987 27.7445C61.1216 28.1496 58.5716 28.2397 55.9619 28.2397C55.9619 27.9846 55.9782 27.7295 55.9837 27.4694H55.9782Z" fill="black"/>
<path d="M63.0518 38.6132C66.9609 38.4631 70.9788 38.7482 74.6922 39.9286C76.4048 40.4688 78.1283 41.199 79.5202 42.2744C79.8083 42.4945 79.9279 42.6596 80.1237 42.9647C81.3959 41.7692 82.0592 39.8936 81.173 38.3331C80.8631 37.7779 80.3357 37.2977 79.6615 37.1427C79.281 37.0526 78.5959 37.1126 78.6231 36.5825C78.6557 36.1023 78.9547 35.6371 79.0798 35.177C79.2592 34.5018 79.2048 33.8165 78.8134 33.2213C77.9163 31.8558 75.9862 31.3157 74.4095 30.9455C72.2565 30.4504 70.0273 30.2403 67.8199 30.1453C68.9997 30.3653 70.185 30.6404 71.2887 31.0956C71.9248 31.3557 72.6479 31.7058 73.0176 32.276C73.7679 33.4414 72.0118 34.3617 71.093 34.7568C71.4518 35.0669 71.7834 35.4271 72.1151 35.7722C72.2945 35.9573 72.4631 36.1723 72.5446 36.4124C72.6914 36.8876 72.3326 37.2527 71.9139 37.4828C71.044 37.9529 69.9458 38.108 68.9563 38.238C67.0044 38.4981 65.0254 38.5731 63.0572 38.6032L63.0518 38.6132Z" fill="black"/>
<path d="M75.1702 70.6642C73.8762 70.9643 72.5333 71.1143 71.2067 71.2494C67.1616 71.6645 63.0676 71.7195 59.0008 71.6145C56.9184 71.5595 54.8252 71.4344 52.7592 71.1443C51.9437 71.0293 51.1118 70.8992 50.318 70.6792C50.1658 70.6391 50.193 70.3891 50.1712 70.259C50.0842 69.7438 49.9864 69.2287 49.8994 68.7085C49.1273 64.372 48.3553 60.0305 47.5887 55.689C46.8819 51.6977 46.1751 47.7013 45.4683 43.7049C45.4139 43.3848 45.3541 43.0597 45.2943 42.7446C45.278 42.6396 45.4139 42.5495 45.4792 42.4795C46.3545 41.6042 47.5669 40.999 48.7359 40.5338C51.6175 39.3684 54.8089 38.8783 57.9188 38.6332C62.3662 38.2881 66.9604 38.3581 71.3589 39.1584C73.7457 39.5935 76.176 40.2587 78.2529 41.4592C78.7259 41.7342 79.1881 42.0343 79.5958 42.3845C79.6502 42.4345 79.9221 42.6296 79.9112 42.7096C79.411 45.6556 78.9162 48.6016 78.4106 51.5426C77.6005 56.3242 76.7904 61.1109 75.9857 65.8925C75.7139 67.4831 75.4475 69.0736 75.1756 70.6642H75.1702Z" fill="black"/>
<path d="M52.3896 42.9247C52.4929 43.0347 52.4875 43.3648 52.5147 43.4999C52.5582 43.73 52.5963 43.96 52.6289 44.1951C52.7865 45.2555 52.9877 46.3208 53.1399 47.3862C53.477 49.687 53.7489 51.9928 54.0098 54.3036C54.5155 58.7351 54.9124 63.1816 55.0048 67.6381C54.9015 67.4881 54.9015 67.183 54.8743 67.0129C54.8308 66.7879 54.7873 66.5628 54.7601 66.3427C54.6242 65.2773 54.4176 64.222 54.2599 63.1616C53.9283 60.9208 53.6619 58.6801 53.4118 56.4343C52.9062 51.9428 52.4875 47.4412 52.3896 42.9197C52.4331 42.9647 52.4331 45.0554 52.3896 42.9197V42.9247Z" fill="white"/>
<path d="M56.1199 42.0693C56.2667 42.5445 56.2885 43.0897 56.332 43.5799C56.4244 44.6952 56.6201 45.8106 56.7343 46.926C56.9735 49.2268 57.153 51.5376 57.3269 53.8434C57.6803 58.465 57.9359 63.0965 57.8706 67.7281C57.7456 67.278 57.7075 66.7728 57.6749 66.3126C57.5825 65.1722 57.3867 64.0419 57.2671 62.9015C57.0225 60.5807 56.8322 58.2549 56.6582 55.9291C56.3048 51.3175 56.0656 46.6959 56.1254 42.0693C56.0982 44.2701 56.158 42.1794 56.1254 42.0693H56.1199Z" fill="white"/>
<path d="M59.9088 41.5542C60.1535 43.3048 60.2568 45.0904 60.3655 46.856C60.5123 49.1768 60.6048 51.5026 60.6917 53.8234C60.8712 58.455 60.9636 63.1016 60.7352 67.7282C60.5069 66.0026 60.3927 64.252 60.2785 62.5164C60.1209 60.1906 60.023 57.8648 59.9306 55.534C59.7457 50.8774 59.6914 46.2108 59.9034 41.5542C59.8001 43.79 59.9306 41.7343 59.9034 41.5542H59.9088Z" fill="white"/>
<path d="M47.0674 48.2815C48.6495 46.706 50.634 45.7057 52.8903 45.1555C55.4185 44.5453 58.0771 44.4052 60.676 44.3352C63.3401 44.2602 66.0368 44.3152 68.6737 44.7003C70.9844 45.0404 73.219 45.5506 75.4427 46.2408C75.5133 46.2608 75.5786 46.2808 75.6438 46.3009C73.605 45.8657 71.5716 45.4706 69.4838 45.2605C66.9339 45.0054 64.3622 44.9104 61.796 45.0054C56.8756 45.1905 51.6235 45.4556 47.4208 48.0665C47.3066 48.1365 47.187 48.2065 47.0674 48.2815Z" fill="white"/>
<path d="M47.5894 51.2575C49.2151 50.1521 50.9821 49.3318 52.9067 48.7616C55.2827 48.0564 57.7619 47.7963 60.2466 47.6812C64.7918 47.4762 69.3752 48.1914 73.7791 49.1618C69.3317 48.6466 64.7701 48.0764 60.2792 48.4015C57.8543 48.5816 55.4784 48.8566 53.1188 49.4368C52.0205 49.7019 50.944 50.017 49.8838 50.3922C49.1063 50.6573 48.356 50.9774 47.584 51.2575H47.5894Z" fill="white"/>
<path d="M48.1113 54.2385C51.2811 51.3525 56.0384 51.2024 60.2411 51.0574C64.5526 50.9373 68.7662 51.2675 72.9472 52.2378C68.7825 51.7276 64.645 51.5526 60.4423 51.7626C58.1968 51.8777 55.9079 51.9927 53.695 52.4028C51.7051 52.773 49.8783 53.3182 48.1113 54.2435V54.2385Z" fill="white"/>
<path d="M48.7359 57.2946C50.2582 56.4043 51.9056 55.7241 53.64 55.2489C55.88 54.6337 58.1744 54.3936 60.496 54.2386C64.628 54.1536 68.6622 54.4987 72.7073 55.2439C68.6405 54.9788 64.6117 54.7788 60.5395 54.9688C58.3266 55.1489 56.141 55.399 53.9771 55.8641C52.1883 56.2493 50.4757 56.7945 48.7305 57.2896L48.7359 57.2946Z" fill="white"/>
<path d="M49.2422 60.2105C55.7393 56.9594 63.699 56.8544 70.7887 58.2999C67.1895 58.0948 63.6283 57.8897 60.0182 58.0798C58.0391 58.1798 56.022 58.4149 54.0865 58.84C52.4282 59.2052 50.8461 59.6803 49.2422 60.2105Z" fill="white"/>
<path d="M49.6982 63.3167C51.0085 62.5614 52.3134 62.0662 53.8194 61.7211C55.7278 61.286 57.7612 61.221 59.713 61.1259C61.703 61.0359 63.7037 60.9959 65.6937 61.0859C67.2812 61.1559 68.8416 61.306 70.4183 61.496C66.9007 61.366 63.4156 61.336 59.8979 61.501C57.9841 61.5611 56.0431 61.6361 54.1511 61.9262C52.5689 62.1663 51.1281 62.6414 49.7037 63.3067L49.6982 63.3167Z" fill="white"/>
<path d="M51.1885 65.4324C52.4281 65.1423 53.6568 64.8972 54.9236 64.7122C56.6036 64.4621 58.3 64.4021 59.9963 64.337C62.9703 64.357 65.9171 64.5121 68.8693 64.8422C65.9117 64.8022 62.9594 64.7272 60.0017 64.7222C58.3706 64.7672 56.7341 64.7972 55.1139 64.9572C53.7982 65.0873 52.4933 65.2624 51.1885 65.4324Z" fill="white"/>
<path d="M63.7474 41.3842C63.9975 45.5656 64.0627 49.747 64.0791 53.9335C64.0899 58.53 64.0193 63.1416 63.6332 67.7282C63.1385 58.9652 63.0297 50.1422 63.7528 41.3842C63.5734 43.5999 63.7692 41.6242 63.7528 41.3842H63.7474Z" fill="white"/>
<path d="M67.5755 41.5692C67.6299 50.2672 67.2112 59.0152 66.325 67.6782C66.2706 58.9802 66.6893 50.2322 67.5755 41.5692Z" fill="white"/>
<path d="M71.4137 42.4144C71.2886 47.2861 70.8591 52.1778 70.1143 56.9994C70.2339 52.1328 70.6688 47.2361 71.4137 42.4144Z" fill="white"/>
<path d="M46.0718 45.5855C47.7627 44.165 49.6493 43.1747 51.786 42.4294C54.1674 41.5942 56.7445 41.3641 59.2672 41.194C60.9364 41.084 62.7088 41.164 64.3725 41.2891C66.9605 41.4891 69.5104 41.8793 72.044 42.3844C73.5555 42.6845 75.0397 43.0647 76.5295 43.4398C67.863 42.0293 58.7888 40.7239 50.2963 43.6299C48.812 44.14 47.4256 44.8353 46.0664 45.5855H46.0718Z" fill="white"/>
<path d="M74.4799 42.9847C74.1755 44.6553 73.8601 46.3309 73.5557 48.0014C73.7623 46.3159 73.9634 44.6303 74.17 42.9447C74.2733 42.9547 74.3766 42.9697 74.4799 42.9847Z" fill="white"/>
<path d="M48.5566 44.0751C49.905 50.6023 50.9489 57.1996 51.6774 63.8118C50.3291 57.2846 49.2852 50.6823 48.5566 44.0751Z" fill="white"/>
<path d="M66.9498 35.9773C70.4295 36.8026 71.158 40.3388 70.897 43.1998C70.8046 44.1851 70.6143 45.1604 70.3533 46.1158C70.212 46.6159 70.0597 47.1111 69.8912 47.6013C69.8042 47.8564 69.7063 48.1065 69.6085 48.3615C69.5595 48.4916 69.5052 48.6166 69.4562 48.7467C69.2931 48.8017 69.1192 48.8517 68.9506 48.8967C67.1292 49.3519 64.7914 49.0368 63.5572 47.6113C63.4321 47.4662 63.318 47.3112 63.231 47.1461C63.1603 47.0311 63.2364 46.936 63.2853 46.816C63.3778 46.5809 63.4648 46.3358 63.5354 46.0908C63.7094 45.5556 63.8399 45.0104 63.9432 44.4602C64.1661 43.2648 64.264 42.0294 64.1281 40.819C64.0139 39.7336 63.7094 38.5932 62.9483 37.7279C62.1653 36.8276 60.9801 36.4475 59.7513 36.4725C59.4034 36.4775 59.0609 36.5175 58.7129 36.5675L66.9444 35.9873L66.9498 35.9773Z" fill="white"/>
<path d="M66.9497 35.9773C72.6095 37.2277 71.3808 44.2651 70.0487 48.0014C69.94 48.3215 69.8693 48.8217 69.5648 48.9968C68.9559 49.2068 68.3198 49.3319 67.6728 49.3569C66.4549 49.4119 65.1881 49.1318 64.1877 48.4866C63.7691 48.2165 63.3994 47.8764 63.1275 47.4762C63.0623 47.3762 62.8992 47.1911 62.8937 47.0661C62.8829 46.891 63.0895 46.6009 63.1493 46.4309C63.5679 45.2905 63.818 44.0951 63.9268 42.8997C64.0844 41.2941 64.0192 39.4585 63.0569 38.058C62.1054 36.6775 60.3928 36.3524 58.7236 36.5575C59.9361 36.3374 61.2409 36.3524 62.3011 37.0126C63.3124 37.6379 63.8615 38.6982 64.1388 39.7636C64.7586 42.1494 64.378 44.8753 63.4374 47.1511C63.4374 47.0811 63.4374 47.0211 63.432 46.9511C64.4433 48.8667 67.4173 49.1318 69.3637 48.4966C69.3039 48.5466 69.2495 48.6016 69.1897 48.6516C70.7338 44.8903 72.566 37.6829 66.9497 35.9773C67.2705 36.0473 67.2596 36.0723 66.9497 35.9773Z" fill="black"/>
<path d="M64.3347 43.5399C65.2318 44.8254 67.2 45.5006 68.8039 45.5856C67.0478 45.6306 64.9817 45.1755 63.8291 43.875C63.9976 43.765 64.1662 43.65 64.3347 43.5399Z" fill="black"/>
<path d="M65.5686 46.3208C65.5686 47.0011 64.416 47.0011 64.416 46.3208C64.416 45.6406 65.5686 45.6406 65.5686 46.3208Z" fill="black"/>
</g>
<defs>
<clipPath id="clip0_348_195">
<rect width="83" height="73" fill="white"/>
</clipPath>
</defs>
</svg>
