<svg width="44" height="88" viewBox="0 0 44 88" fill="none" xmlns="http://www.w3.org/2000/svg">
<path d="M15.125 0H28.875C31.1609 0 33 1.83906 33 4.125V11H11V4.125C11 1.83906 12.8391 0 15.125 0ZM0 28.7891C0 25.4375 1.71875 22.3266 4.57187 20.5562L7.2875 18.8547C9.74531 17.3078 12.5813 16.5 15.4859 16.5H28.5141C31.4187 16.5 34.2547 17.3078 36.7125 18.8547L39.4281 20.5562C42.2812 22.3266 44 25.4375 44 28.7891C44 31.7109 42.7109 34.3406 40.6656 36.1109C42.7281 38.1047 44 40.9062 44 44C44 47.2828 42.5562 50.2391 40.2703 52.25C42.5562 54.2609 44 57.2172 44 60.5C44 63.7828 42.5562 66.7391 40.2703 68.75C42.5562 70.7609 44 73.7172 44 77C44 83.0672 39.0672 88 33 88H11C4.93281 88 0 83.0672 0 77C0 73.7172 1.44375 70.7609 3.72969 68.75C1.44375 66.7391 0 63.7828 0 60.5C0 57.2172 1.44375 54.2609 3.72969 52.25C1.44375 50.2391 0 47.2828 0 44C0 40.9062 1.27188 38.1047 3.33438 36.1109C1.28906 34.3234 0 31.7109 0 28.7891ZM11 41.25C11 42.7625 12.2375 44 13.75 44H30.25C31.7625 44 33 42.7625 33 41.25C33 39.7375 31.7625 38.5 30.25 38.5H13.75C12.2375 38.5 11 39.7375 11 41.25ZM13.75 60.5C12.2375 60.5 11 61.7375 11 63.25C11 64.7625 12.2375 66 13.75 66H30.25C31.7625 66 33 64.7625 33 63.25C33 61.7375 31.7625 60.5 30.25 60.5H13.75Z" fill="#111111"/>
</svg>
